<?xml version="1.0" standalone="no"?>
<!DOCTYPE svg PUBLIC "-//W3C//DTD SVG 20010904//EN"
 "http://www.w3.org/TR/2001/REC-SVG-20010904/DTD/svg10.dtd">
<svg version="1.0" xmlns="http://www.w3.org/2000/svg"
 width="512.000000pt" height="512.000000pt" viewBox="0 0 512.000000 512.000000"
 preserveAspectRatio="xMidYMid meet">

<g transform="translate(0.000000,512.000000) scale(0.100000,-0.100000)"
fill="#000000" stroke="none">
<path d="M2355 4954 c-16 -2 -70 -9 -120 -15 -232 -29 -521 -125 -743 -245
-80 -44 -83 -47 -69 -67 8 -12 42 -70 77 -129 l63 -107 81 43 c384 207 865
275 1311 185 151 -30 335 -95 481 -169 l131 -66 77 125 c71 117 75 127 59 140
-37 28 -302 151 -399 184 -125 44 -277 81 -414 102 -99 15 -467 29 -535 19z"/>
<path d="M373 3891 l-371 -186 -1 -470 -1 -470 375 -188 375 -187 375 187 375
188 0 470 0 470 -375 188 c-206 103 -376 186 -378 185 -1 -1 -169 -85 -374
-187z"/>
<path d="M3620 3310 l0 -750 750 0 750 0 0 750 0 750 -750 0 -750 0 0 -750z"/>
<path d="M2410 3296 l0 -164 -28 -11 c-15 -6 -47 -24 -71 -40 l-43 -29 -137
79 c-75 43 -139 79 -142 79 -11 0 -151 -251 -144 -258 4 -4 65 -41 137 -82
l131 -75 0 -85 0 -85 -132 -76 c-72 -42 -134 -79 -137 -82 -7 -7 134 -257 144
-257 4 0 68 36 143 79 l137 79 43 -29 c24 -16 56 -34 71 -40 l28 -11 0 -164 0
-164 150 0 150 0 0 163 0 164 40 18 c22 10 54 28 71 41 l30 22 130 -74 c72
-41 136 -77 143 -80 14 -5 163 242 152 253 -4 4 -66 41 -138 83 l-131 76 0 84
0 83 131 77 c72 42 134 79 138 83 3 3 -26 63 -66 132 -52 89 -77 124 -87 120
-8 -3 -73 -39 -144 -80 l-130 -76 -44 31 c-24 16 -55 34 -69 40 l-26 10 0 165
0 165 -150 0 -150 0 0 -164z"/>
<path d="M540 2105 c-156 -49 -147 -31 -90 -180 133 -354 356 -674 632 -911
94 -80 268 -208 273 -201 1 1 37 58 80 126 l79 124 -25 16 c-149 98 -387 321
-491 461 -112 151 -208 329 -274 508 -20 56 -40 101 -43 101 -3 -1 -67 -20
-141 -44z"/>
<path d="M4395 2062 c-39 -115 -139 -315 -213 -427 -146 -219 -348 -419 -572
-566 l-24 -16 78 -126 79 -127 29 18 c76 45 246 180 343 274 192 185 334 378
454 619 62 124 149 345 140 353 -3 2 -141 44 -269 81 -11 4 -23 -17 -45 -83z"/>
<path d="M1956 955 l-596 -795 1200 0 1200 0 -596 795 c-328 437 -600 795
-604 795 -4 0 -276 -358 -604 -795z"/>
</g>
</svg>
