<svg version="1.1" id="Layer_1" xmlns="http://www.w3.org/2000/svg" xmlns:xlink="http://www.w3.org/1999/xlink" x="0px" y="0px"
	 width="100%" viewBox="0 0 860 740" enable-background="new 0 0 860 740" xml:space="preserve">
<path fill="#F7F7F7" opacity="1.000000" stroke="none" 
	d="
M586.000000,741.000000 
	C390.666656,741.000000 195.833328,741.000000 1.000000,741.000000 
	C1.000000,494.333344 1.000000,247.666672 1.000000,1.000000 
	C287.666656,1.000000 574.333313,1.000000 861.000000,1.000000 
	C861.000000,247.666672 861.000000,494.333344 861.000000,741.000000 
	C769.500000,741.000000 678.000000,741.000000 586.000000,741.000000 
M381.009155,539.063293 
	C381.014587,424.875153 381.020508,310.687012 381.018585,196.498856 
	C381.018555,195.337708 380.915070,194.176544 381.008240,192.404755 
	C380.674957,192.251862 380.341644,192.098984 379.095306,191.712128 
	C346.517822,191.712128 313.940308,191.712128 281.339111,191.712128 
	C281.339111,308.574432 281.339111,424.775665 281.339111,541.318726 
	C294.113007,541.318726 306.587189,541.349854 319.061188,541.311646 
	C339.377502,541.249451 359.693665,541.141968 380.634766,541.101562 
	C380.709808,540.730591 380.784851,540.359619 381.009155,539.063293 
M679.075378,41.860500 
	C646.490540,41.860500 613.905762,41.860500 581.410095,41.860500 
	C581.410095,208.703613 581.410095,374.897644 581.410095,541.056763 
	C614.709534,541.056763 647.642761,541.056763 681.017578,541.056763 
	C681.017578,539.019531 681.017517,537.222839 681.017517,535.426147 
	C681.017517,372.951691 681.018066,210.477203 681.010376,48.002735 
	C681.010315,46.340668 680.902649,44.678608 680.998169,42.434566 
	C680.663147,42.309864 680.328125,42.185162 679.075378,41.860500 
M546.500183,591.327209 
	C374.745331,591.327209 202.990494,591.327209 31.211958,591.327209 
	C31.211958,624.889160 31.211958,657.830750 31.211958,690.965942 
	C297.802551,690.965942 564.181213,690.965942 830.691589,690.965942 
	C830.691589,657.747681 830.691589,624.705078 830.691589,591.327209 
	C736.089111,591.327209 641.794678,591.327209 546.500183,591.327209 
M431.000000,490.500000 
	C431.000000,507.405670 431.000000,524.311340 431.000000,541.033081 
	C464.664612,541.033081 497.601471,541.033081 530.721802,541.033081 
	C530.721802,474.518860 530.721802,408.290588 530.721802,341.831757 
	C497.409515,341.831757 464.365601,341.831757 431.000000,341.831757 
	C431.000000,391.230927 431.000000,440.365448 431.000000,490.500000 
M231.000000,499.500000 
	C231.000000,463.603271 231.000000,427.706512 231.000000,391.804718 
	C197.368088,391.804718 164.321289,391.804718 131.267120,391.804718 
	C131.267120,441.694824 131.267120,491.257477 131.267120,541.069031 
	C164.557617,541.069031 197.591476,541.069031 230.566208,541.069031 
	C230.748688,540.569031 230.954239,540.267883 230.954834,539.966431 
	C230.981247,526.810974 230.989532,513.655457 231.000000,499.500000 
z"/>
<path fill="#000000" opacity="1.000000" stroke="none" 
	d="
M547.000244,591.327209 
	C641.794678,591.327209 736.089111,591.327209 830.691589,591.327209 
	C830.691589,624.705078 830.691589,657.747681 830.691589,690.965942 
	C564.181213,690.965942 297.802551,690.965942 31.211958,690.965942 
	C31.211958,657.830750 31.211958,624.889160 31.211958,591.327209 
	C202.990494,591.327209 374.745331,591.327209 547.000244,591.327209 
z"/>
<path fill="#000000" opacity="1.000000" stroke="none" 
	d="
M680.845215,43.016544 
	C680.902649,44.678608 681.010315,46.340668 681.010376,48.002735 
	C681.018066,210.477203 681.017517,372.951691 681.017517,535.426147 
	C681.017517,537.222839 681.017578,539.019531 681.017578,541.056763 
	C647.642761,541.056763 614.709534,541.056763 581.410095,541.056763 
	C581.410095,374.897644 581.410095,208.703613 581.410095,41.860500 
	C613.905762,41.860500 646.490540,41.860500 679.617126,42.168327 
	C680.308838,42.756416 680.537598,42.936546 680.845215,43.016544 
z"/>
<path fill="#000000" opacity="1.000000" stroke="none" 
	d="
M380.009888,541.053589 
	C359.693665,541.141968 339.377502,541.249451 319.061188,541.311646 
	C306.587189,541.349854 294.113007,541.318726 281.339111,541.318726 
	C281.339111,424.775665 281.339111,308.574432 281.339111,191.712128 
	C313.940308,191.712128 346.517822,191.712128 379.621521,192.057648 
	C380.309174,192.695557 380.546539,192.899628 380.859863,193.015396 
	C380.915070,194.176544 381.018555,195.337708 381.018585,196.498856 
	C381.020508,310.687012 381.014587,424.875153 380.727875,539.644653 
	C380.193817,540.445374 380.048248,540.721191 380.009888,541.053589 
z"/>
<path fill="#000000" opacity="1.000000" stroke="none" 
	d="
M431.000000,490.000000 
	C431.000000,440.365448 431.000000,391.230927 431.000000,341.831757 
	C464.365601,341.831757 497.409515,341.831757 530.721802,341.831757 
	C530.721802,408.290588 530.721802,474.518860 530.721802,541.033081 
	C497.601471,541.033081 464.664612,541.033081 431.000000,541.033081 
	C431.000000,524.311340 431.000000,507.405670 431.000000,490.000000 
z"/>
<path fill="#000000" opacity="1.000000" stroke="none" 
	d="
M231.000000,500.000000 
	C230.989532,513.655457 230.981247,526.810974 230.954834,539.966431 
	C230.954239,540.267883 230.748688,540.569031 230.566208,541.069031 
	C197.591476,541.069031 164.557617,541.069031 131.267120,541.069031 
	C131.267120,491.257477 131.267120,441.694824 131.267120,391.804718 
	C164.321289,391.804718 197.368088,391.804718 231.000000,391.804718 
	C231.000000,427.706512 231.000000,463.603271 231.000000,500.000000 
z"/>
<path fill="#242424" opacity="1.000000" stroke="none" 
	d="
M680.921753,42.725555 
	C680.537598,42.936546 680.308838,42.756416 680.075989,42.268303 
	C680.328125,42.185162 680.663147,42.309864 680.921753,42.725555 
z"/>
<path fill="#242424" opacity="1.000000" stroke="none" 
	d="
M380.934052,192.710083 
	C380.546539,192.899628 380.309174,192.695557 380.078033,192.174637 
	C380.341644,192.098984 380.674957,192.251862 380.934052,192.710083 
z"/>
<path fill="#242424" opacity="1.000000" stroke="none" 
	d="
M380.322327,541.077576 
	C380.048248,540.721191 380.193817,540.445374 380.653259,540.107361 
	C380.784851,540.359619 380.709808,540.730591 380.322327,541.077576 
z"/>
</svg>