<svg version="1.1" id="Layer_1" xmlns="http://www.w3.org/2000/svg" xmlns:xlink="http://www.w3.org/1999/xlink" x="0px" y="0px"
	 width="100%" viewBox="0 0 279 280" enable-background="new 0 0 279 280" xml:space="preserve">
<path fill="#F5F5F5" opacity="1.000000" stroke="none" 
	d="
M161.000000,281.000000 
	C107.333336,281.000000 54.166668,281.000000 1.000000,281.000000 
	C1.000000,187.666672 1.000000,94.333336 1.000000,1.000000 
	C94.000000,1.000000 187.000000,1.000000 280.000000,1.000000 
	C280.000000,94.333336 280.000000,187.666672 280.000000,281.000000 
	C240.500000,281.000000 201.000000,281.000000 161.000000,281.000000 
M234.778992,202.964401 
	C235.800201,207.475006 237.045212,211.948853 237.793579,216.504303 
	C239.135956,224.675903 246.099030,230.298019 254.883865,229.964172 
	C262.497070,229.674866 269.500061,222.880310 269.626312,215.108673 
	C269.696075,210.814011 269.300842,206.420532 268.422699,202.216248 
	C261.771027,170.369766 228.577454,149.340469 196.160583,160.127579 
	C194.817932,160.574371 192.573837,160.710022 191.747787,159.931564 
	C185.246674,153.804886 178.988861,147.420044 172.067245,140.528366 
	C188.611984,124.121056 204.660172,108.206161 220.326614,92.669861 
	C209.657440,82.115753 199.056168,71.628815 188.267441,60.956463 
	C172.659927,76.470078 156.619507,92.413986 141.000931,107.938591 
	C134.727341,102.000320 128.433258,96.297028 122.518997,90.223854 
	C121.374329,89.048424 120.963432,86.191360 121.492752,84.513382 
	C124.421997,75.227531 124.858940,65.939651 122.977150,56.407146 
	C117.983910,31.113180 94.073540,11.191291 68.463638,11.140331 
	C59.848183,11.123188 52.347198,17.505630 51.852894,25.274088 
	C51.217545,35.259289 56.725456,42.279438 66.183907,43.505096 
	C67.669807,43.697639 69.177025,43.725578 70.662994,43.917690 
	C82.136032,45.400974 91.437103,55.530148 91.871696,66.987778 
	C92.316574,78.716599 83.642265,89.611916 72.093620,91.829910 
	C60.755722,94.007431 48.768253,87.330719 44.953365,76.333687 
	C43.772106,72.928513 43.623322,69.166580 42.987381,65.570534 
	C41.471531,56.998913 34.563271,51.510090 25.954113,52.027142 
	C16.181187,52.614086 10.267398,60.783363 11.147365,72.481110 
	C13.875648,108.749237 50.062756,132.977005 84.736038,121.857925 
	C86.110603,121.417122 88.484344,121.695358 89.416183,122.621216 
	C112.585197,145.641678 135.640411,168.776978 158.616104,191.990601 
	C159.515228,192.899048 159.865189,194.823196 159.732437,196.203003 
	C158.957687,204.254730 156.776031,212.357025 157.257477,220.309784 
	C158.890030,247.276993 184.503204,270.634491 211.535690,270.751801 
	C222.162903,270.797913 229.314896,263.978882 229.114349,253.991623 
	C228.939392,245.278961 223.234665,240.062714 212.908157,238.163055 
	C208.117249,237.281723 203.002823,236.011703 199.003220,233.422379 
	C190.635468,228.005219 187.394180,217.973740 189.860596,208.371811 
	C192.438583,198.335464 199.097275,192.331604 209.052170,190.228485 
	C218.997787,188.127350 228.221207,192.742645 234.778992,202.964401 
M118.494202,184.067047 
	C109.766602,175.214279 101.039001,166.361496 92.297638,157.494766 
	C65.335083,184.395599 39.043278,210.612183 12.800183,236.877472 
	C11.947269,237.731094 11.096274,239.075027 11.081484,240.201385 
	C10.948841,250.302795 11.004068,260.406677 11.004068,270.886749 
	C20.490864,270.886749 29.456676,271.123108 38.396065,270.741058 
	C41.038944,270.628143 44.267860,269.437286 46.109993,267.611877 
	C71.069519,242.879074 95.834137,217.949539 120.635101,193.056839 
	C121.745918,191.941910 122.744202,190.714844 124.125099,189.170822 
	C122.223564,187.470840 120.610901,186.029099 118.494202,184.067047 
M227.447067,66.053932 
	C230.543015,69.500992 233.638962,72.948059 236.364273,75.982468 
	C245.287582,67.343086 253.429138,59.495895 261.520660,51.597424 
	C263.183472,49.974281 264.727631,48.215992 266.208527,46.422619 
	C270.752075,40.920475 271.416504,33.309658 267.064789,28.080761 
	C262.936859,23.120731 258.328918,18.467772 253.426590,14.270126 
	C248.351013,9.924140 239.936295,9.766692 235.437744,14.205696 
	C225.519455,23.992702 216.083786,34.268818 206.000717,44.816574 
	C212.573776,51.323921 219.760422,58.438740 227.447067,66.053932 
z"/>
<path fill="#020202" opacity="1.000000" stroke="none" 
	d="
M234.579193,202.643250 
	C228.221207,192.742645 218.997787,188.127350 209.052170,190.228485 
	C199.097275,192.331604 192.438583,198.335464 189.860596,208.371811 
	C187.394180,217.973740 190.635468,228.005219 199.003220,233.422379 
	C203.002823,236.011703 208.117249,237.281723 212.908157,238.163055 
	C223.234665,240.062714 228.939392,245.278961 229.114349,253.991623 
	C229.314896,263.978882 222.162903,270.797913 211.535690,270.751801 
	C184.503204,270.634491 158.890030,247.276993 157.257477,220.309784 
	C156.776031,212.357025 158.957687,204.254730 159.732437,196.203003 
	C159.865189,194.823196 159.515228,192.899048 158.616104,191.990601 
	C135.640411,168.776978 112.585197,145.641678 89.416183,122.621216 
	C88.484344,121.695358 86.110603,121.417122 84.736038,121.857925 
	C50.062756,132.977005 13.875648,108.749237 11.147365,72.481110 
	C10.267398,60.783363 16.181187,52.614086 25.954113,52.027142 
	C34.563271,51.510090 41.471531,56.998913 42.987381,65.570534 
	C43.623322,69.166580 43.772106,72.928513 44.953365,76.333687 
	C48.768253,87.330719 60.755722,94.007431 72.093620,91.829910 
	C83.642265,89.611916 92.316574,78.716599 91.871696,66.987778 
	C91.437103,55.530148 82.136032,45.400974 70.662994,43.917690 
	C69.177025,43.725578 67.669807,43.697639 66.183907,43.505096 
	C56.725456,42.279438 51.217545,35.259289 51.852894,25.274088 
	C52.347198,17.505630 59.848183,11.123188 68.463638,11.140331 
	C94.073540,11.191291 117.983910,31.113180 122.977150,56.407146 
	C124.858940,65.939651 124.421997,75.227531 121.492752,84.513382 
	C120.963432,86.191360 121.374329,89.048424 122.518997,90.223854 
	C128.433258,96.297028 134.727341,102.000320 141.000931,107.938591 
	C156.619507,92.413986 172.659927,76.470078 188.267441,60.956463 
	C199.056168,71.628815 209.657440,82.115753 220.326614,92.669861 
	C204.660172,108.206161 188.611984,124.121056 172.067245,140.528366 
	C178.988861,147.420044 185.246674,153.804886 191.747787,159.931564 
	C192.573837,160.710022 194.817932,160.574371 196.160583,160.127579 
	C228.577454,149.340469 261.771027,170.369766 268.422699,202.216248 
	C269.300842,206.420532 269.696075,210.814011 269.626312,215.108673 
	C269.500061,222.880310 262.497070,229.674866 254.883865,229.964172 
	C246.099030,230.298019 239.135956,224.675903 237.793579,216.504303 
	C237.045212,211.948853 235.800201,207.475006 234.579193,202.643250 
z"/>
<path fill="#020202" opacity="1.000000" stroke="none" 
	d="
M118.746216,184.327209 
	C120.610901,186.029099 122.223564,187.470840 124.125099,189.170822 
	C122.744202,190.714844 121.745918,191.941910 120.635101,193.056839 
	C95.834137,217.949539 71.069519,242.879074 46.109993,267.611877 
	C44.267860,269.437286 41.038944,270.628143 38.396065,270.741058 
	C29.456676,271.123108 20.490864,270.886749 11.004068,270.886749 
	C11.004068,260.406677 10.948841,250.302795 11.081484,240.201385 
	C11.096274,239.075027 11.947269,237.731094 12.800183,236.877472 
	C39.043278,210.612183 65.335083,184.395599 92.297638,157.494766 
	C101.039001,166.361496 109.766602,175.214279 118.746216,184.327209 
z"/>
<path fill="#030303" opacity="1.000000" stroke="none" 
	d="
M227.197083,65.803741 
	C219.760422,58.438740 212.573776,51.323921 206.000717,44.816574 
	C216.083786,34.268818 225.519455,23.992702 235.437744,14.205696 
	C239.936295,9.766692 248.351013,9.924140 253.426590,14.270126 
	C258.328918,18.467772 262.936859,23.120731 267.064789,28.080761 
	C271.416504,33.309658 270.752075,40.920475 266.208527,46.422619 
	C264.727631,48.215992 263.183472,49.974281 261.520660,51.597424 
	C253.429138,59.495895 245.287582,67.343086 236.364273,75.982468 
	C233.638962,72.948059 230.543015,69.500992 227.197083,65.803741 
z"/>
</svg>