<svg version="1.1" id="Layer_1" xmlns="http://www.w3.org/2000/svg" xmlns:xlink="http://www.w3.org/1999/xlink" x="0px" y="0px"
	 width="100%" viewBox="0 0 848 896" enable-background="new 0 0 848 896" xml:space="preserve">
<path fill="#000000" opacity="1.000000" stroke="none" 
	d="
M786.928101,624.796204 
	C757.536743,680.983154 717.676575,727.674805 666.700378,764.857910 
	C629.044922,792.324585 587.889404,812.666504 543.146301,825.623840 
	C515.255310,833.700928 486.833710,838.688171 457.764832,840.553589 
	C406.277313,843.857544 356.044006,837.856262 307.014587,821.962402 
	C252.155548,804.178833 203.441498,775.699097 160.968674,736.714722 
	C105.642372,685.932617 67.352882,624.411072 46.234310,552.355347 
	C38.164555,524.821594 33.169468,496.691193 31.467741,467.956512 
	C29.907001,441.602478 30.272730,415.339966 33.769623,389.194031 
	C42.304165,325.382050 64.490723,266.795959 101.162300,213.715607 
	C135.646622,163.801163 179.137848,123.729301 231.644348,93.485573 
	C273.921936,69.133698 319.213531,53.276836 367.447357,45.494228 
	C394.388397,41.147243 421.438843,39.806206 448.579529,40.868256 
	C502.675507,42.985107 554.182556,56.017937 603.095947,79.229614 
	C646.457336,99.806648 684.860291,127.402451 718.224487,161.827484 
	C759.045044,203.945847 789.305237,252.708771 808.872009,308.091461 
	C819.685791,338.699036 826.821594,370.148132 829.729187,402.403778 
	C833.424683,443.399292 831.505859,484.154144 822.736023,524.563110 
	C815.162781,559.458069 803.396790,592.740784 786.928101,624.796204 
M72.924889,348.321777 
	C63.022202,387.175201 59.266182,426.556396 62.118145,466.609100 
	C63.993263,492.943054 68.316666,518.814636 75.791740,544.094666 
	C94.073738,605.923035 126.211067,659.504028 172.291031,704.660950 
	C173.298004,705.647766 174.045135,707.196960 176.078552,706.913696 
	C211.422485,627.073303 270.472626,573.067688 353.873566,545.397095 
	C309.266357,519.569397 280.507233,482.421173 270.808685,431.949280 
	C261.077148,381.305817 273.271088,335.691071 305.975037,295.947968 
	C364.413940,224.930801 471.204376,217.633972 540.700928,279.960999 
	C572.887878,308.827454 591.241272,345.428864 593.905090,388.450256 
	C598.091248,456.056824 568.915039,507.171906 511.842377,543.854004 
	C552.500854,555.661987 588.300903,574.920471 619.778503,602.138672 
	C651.372192,629.457153 675.434448,662.415039 693.117310,700.878540 
	C699.583740,695.729004 704.329285,689.988403 709.195435,684.385193 
	C764.989136,620.140930 795.235168,545.386169 800.495178,460.603119 
	C802.231995,432.608734 800.419434,404.624115 795.428833,377.008057 
	C783.722046,312.227966 757.075134,254.289200 714.744080,203.720978 
	C680.657593,163.001572 639.668396,131.035843 591.917542,107.895805 
	C557.367126,91.152702 521.007996,80.238907 482.907806,74.882378 
	C446.328827,69.739731 409.843781,70.022247 373.436798,75.664322 
	C338.354034,81.101181 304.712250,91.470604 272.615265,106.784363 
	C223.127838,130.395248 180.769196,163.165131 145.884064,205.458145 
	C111.238953,247.460190 86.932129,294.821136 72.924889,348.321777 
M396.879425,272.387543 
	C395.758759,272.705811 394.636414,273.018433 393.517609,273.343140 
	C319.762665,294.751434 278.527435,370.738403 302.652924,442.578308 
	C317.989410,488.246643 349.887604,517.304810 396.531403,529.781433 
	C400.800995,530.923523 402.625397,532.526550 402.381470,537.139099 
	C401.994751,544.451538 402.273315,551.799377 402.278076,559.132202 
	C402.282623,566.091736 402.298248,566.169006 395.346710,567.181702 
	C380.298431,569.373901 365.665619,573.174683 351.407928,578.420776 
	C308.075928,594.364624 271.599426,620.162109 241.787659,655.320923 
	C223.982376,676.319641 210.026855,699.695435 199.972015,725.378967 
	C198.680878,728.677002 199.041458,730.657837 202.013321,732.951477 
	C263.303467,780.255981 332.651825,806.155884 409.847992,810.457764 
	C447.804199,812.572876 485.301636,808.433167 522.139343,798.665405 
	C574.157349,784.872620 620.727112,760.554443 662.489014,726.765747 
	C665.314697,724.479614 665.757324,722.448486 664.296387,719.109253 
	C658.402893,705.638733 651.749512,692.565369 643.330017,680.524597 
	C599.490601,617.828613 539.891907,579.923462 464.313354,567.490784 
	C460.070496,566.792908 458.669067,565.148560 458.770874,561.047180 
	C458.977570,552.719421 459.120819,544.370605 458.745850,536.054932 
	C458.505219,530.718262 460.084167,528.185425 465.590942,526.658508 
	C486.192657,520.946106 504.361023,510.454285 519.610474,495.547974 
	C553.190369,462.723633 565.727112,422.716553 557.794189,376.624634 
	C544.793762,301.089569 471.680359,253.626068 396.879425,272.387543 
z"/>
</svg>