<svg version="1.1" id="Layer_1" xmlns="http://www.w3.org/2000/svg" xmlns:xlink="http://www.w3.org/1999/xlink" x="0px" y="0px"
	 width="100%" viewBox="0 0 976 992" enable-background="new 0 0 976 992" xml:space="preserve">
<path fill="#000000" opacity="1.000000" stroke="none" 
	d="
M0.999998,905.468628 
	C3.143418,893.584961 5.146318,882.141357 7.455806,870.760010 
	C15.337203,831.920105 27.943245,794.635437 45.229755,758.995728 
	C87.159927,672.548157 149.202438,603.985474 230.187393,552.557190 
	C270.795441,526.769653 314.485443,507.700623 360.810669,494.697662 
	C362.706665,494.165466 364.573914,493.530731 366.789154,492.839325 
	C365.496552,490.426819 363.379181,489.722565 361.609863,488.722534 
	C307.084381,457.904419 268.043304,413.437500 244.729584,355.364349 
	C234.819962,330.680084 229.308228,304.926483 227.533813,278.287170 
	C224.082687,226.475586 234.920441,177.867676 260.929230,133.117569 
	C299.884460,66.092178 357.505310,23.837128 433.282684,6.674120 
	C447.097504,3.545165 461.144135,2.181178 475.625092,1.152223 
	C482.354401,1.000000 488.708801,1.000000 495.531616,0.999999 
	C504.754944,1.863425 513.549194,2.440737 522.258301,3.637583 
	C571.870972,10.455568 615.870178,30.103577 654.085571,62.393982 
	C695.471191,97.363083 723.433411,141.082397 737.901062,193.330978 
	C744.421326,216.878235 747.627075,240.965927 747.007507,265.344818 
	C745.484619,325.263611 726.085754,378.850616 688.098267,425.356934 
	C667.677795,450.356812 643.379761,470.992950 615.295654,487.060913 
	C613.590942,488.036224 611.616760,488.677246 610.430725,490.553406 
	C611.943359,492.692230 614.438782,492.800079 616.574707,493.380463 
	C713.298035,519.660095 794.940002,570.444458 861.471802,645.209351 
	C919.149719,710.024780 956.754639,785.225769 975.069885,870.051270 
	C975.594849,872.482239 976.142151,874.908386 976.839478,877.668396 
	C977.000000,898.687561 977.000000,919.375122 976.771240,940.789124 
	C976.143250,942.423584 975.709595,943.318176 975.349854,944.241638 
	C970.308228,957.184082 963.108337,968.174011 950.874084,975.834412 
	C940.584473,982.277039 930.217712,988.373657 919.000000,993.000000 
	C629.979126,993.000000 340.958221,993.000000 51.268036,992.722656 
	C40.602005,988.084229 31.610870,982.408813 24.609440,973.785583 
	C13.535226,960.146179 3.383075,946.093445 1.000000,928.000000 
	C1.000000,920.645752 1.000000,913.291504 0.999998,905.468628 
M512.500000,948.062317 
	C639.494202,948.076416 766.488342,948.091553 893.482544,948.099731 
	C898.145264,948.100037 902.935120,948.474731 907.400757,947.149597 
	C932.478516,939.707581 938.797363,923.347351 935.230469,901.190186 
	C925.502075,840.758301 903.635437,784.772949 870.574097,733.223450 
	C839.366333,684.564026 800.423279,643.140076 753.677917,609.133118 
	C687.489685,560.981689 613.702026,532.208618 532.296814,523.489746 
	C503.779175,520.435425 475.167511,520.464722 446.533722,523.110657 
	C414.597168,526.061829 383.335876,532.160828 352.837708,541.956787 
	C271.624664,568.042419 202.649078,612.972595 146.520752,677.264160 
	C101.065880,729.329956 69.320953,788.824402 51.957546,855.777466 
	C46.875225,875.374878 41.720879,895.082397 42.336895,915.642639 
	C42.559433,923.070129 45.108521,929.498535 50.312996,935.006470 
	C59.529148,944.759888 70.722664,948.194519 84.019302,948.175842 
	C226.512634,947.975525 369.006378,948.057739 512.500000,948.062317 
M272.303802,282.368835 
	C273.107239,291.310486 274.418213,300.178711 276.412720,308.930908 
	C287.618683,358.103607 312.381622,399.031036 352.089539,430.223969 
	C400.180573,468.002289 455.089844,482.187653 515.608398,474.724091 
	C561.689880,469.041046 602.115479,450.461243 635.500916,418.289490 
	C684.279236,371.284424 705.885010,313.322693 701.855652,245.733887 
	C700.293945,219.537247 694.088806,194.518753 683.251465,170.636108 
	C640.673157,76.804565 540.650696,30.428337 443.373413,49.728012 
	C405.879028,57.166847 372.550903,73.435326 343.753143,98.792389 
	C312.795837,126.050957 291.705383,159.569855 280.099640,199.041351 
	C272.183411,225.964813 269.516388,253.466202 272.303802,282.368835 
z"/>
</svg>