<svg version="1.1" id="Layer_1" xmlns="http://www.w3.org/2000/svg" xmlns:xlink="http://www.w3.org/1999/xlink" x="0px" y="0px"
	 width="100%" viewBox="0 0 240 240" enable-background="new 0 0 240 240" xml:space="preserve">
<path fill="#FEFEFE" opacity="1.000000" stroke="none" 
	d="
M241.000000,135.000000 
	C241.000000,170.299103 241.000000,205.598221 241.000000,240.897324 
	C240.867722,240.931549 240.735428,240.995743 240.603149,240.995758 
	C160.847137,241.000031 81.091133,241.000000 1.000000,241.000000 
	C1.000000,205.979813 1.000000,170.958572 1.377743,135.608566 
	C4.971737,158.731613 13.738489,179.792236 29.022303,197.972229 
	C43.260288,214.908249 60.843407,227.080765 81.770020,234.337494 
	C87.049866,236.168381 90.683456,234.335175 90.874290,229.436218 
	C91.164696,221.980942 90.950310,214.506012 90.950310,206.762848 
	C89.057777,207.109940 87.600998,207.437302 86.126984,207.638229 
	C69.051804,209.965759 54.499142,204.940277 48.641071,188.767212 
	C46.794991,183.670532 41.597935,179.783279 37.916126,175.357834 
	C36.305710,173.422150 34.649002,171.524994 33.013309,169.610336 
	C35.795952,169.143311 38.568314,168.431732 41.365650,168.314163 
	C42.730648,168.256775 44.438160,168.977280 45.480259,169.913681 
	C49.500168,173.525879 53.976982,176.892227 57.075455,181.215927 
	C65.021629,192.304291 75.611122,196.022858 88.465721,191.131409 
	C89.807106,190.620972 91.276146,189.394135 91.855415,188.121613 
	C93.948738,183.523026 95.687218,178.762894 97.600784,173.960556 
	C96.059502,173.706268 93.801598,173.315811 91.537827,172.962921 
	C48.789238,166.299164 29.510704,119.624733 54.950508,84.560822 
	C55.831924,83.345963 56.192356,81.178749 55.808052,79.714638 
	C53.578693,71.221336 54.365299,62.946209 56.581520,54.585491 
	C57.524551,51.027897 59.354965,50.223183 62.692554,50.638924 
	C72.045059,51.803921 79.916672,56.373531 87.883797,60.916763 
	C89.764763,61.989380 92.549484,62.465527 94.652725,62.004284 
	C112.175690,58.161503 129.618271,58.141407 147.151749,61.954403 
	C149.395279,62.442303 152.355637,61.912579 154.370682,60.771431 
	C162.353256,56.250774 170.230728,51.690071 179.599243,50.605667 
	C182.761871,50.239594 184.426575,51.094715 185.336716,54.402187 
	C187.632965,62.746670 188.449005,71.026978 186.220169,79.517220 
	C185.854080,80.911781 185.837387,83.038155 186.643982,84.003326 
	C196.804718,96.161819 198.464920,110.294106 197.001587,125.379227 
	C194.664566,149.470810 181.784286,164.931442 158.373459,171.053894 
	C153.513306,172.324890 148.538406,173.157181 143.226440,174.273621 
	C149.217346,180.767624 150.957428,188.248993 150.986084,196.279129 
	C151.022934,206.609329 150.956940,216.939972 151.013657,227.269989 
	C151.051315,234.126160 154.225998,236.509598 160.507217,234.197327 
	C198.452255,220.228821 223.546463,193.867813 235.868027,155.421234 
	C238.005753,148.751022 239.310516,141.813873 241.000000,135.000000 
z"/>
<path fill="#020202" opacity="1.000000" stroke="none" 
	d="
M241.000000,134.531342 
	C239.310516,141.813873 238.005753,148.751022 235.868027,155.421234 
	C223.546463,193.867813 198.452255,220.228821 160.507217,234.197327 
	C154.225998,236.509598 151.051315,234.126160 151.013657,227.269989 
	C150.956940,216.939972 151.022934,206.609329 150.986084,196.279129 
	C150.957428,188.248993 149.217346,180.767624 143.226440,174.273621 
	C148.538406,173.157181 153.513306,172.324890 158.373459,171.053894 
	C181.784286,164.931442 194.664566,149.470810 197.001587,125.379227 
	C198.464920,110.294106 196.804718,96.161819 186.643982,84.003326 
	C185.837387,83.038155 185.854080,80.911781 186.220169,79.517220 
	C188.449005,71.026978 187.632965,62.746670 185.336716,54.402187 
	C184.426575,51.094715 182.761871,50.239594 179.599243,50.605667 
	C170.230728,51.690071 162.353256,56.250774 154.370682,60.771431 
	C152.355637,61.912579 149.395279,62.442303 147.151749,61.954403 
	C129.618271,58.141407 112.175690,58.161503 94.652725,62.004284 
	C92.549484,62.465527 89.764763,61.989380 87.883797,60.916763 
	C79.916672,56.373531 72.045059,51.803921 62.692554,50.638924 
	C59.354965,50.223183 57.524551,51.027897 56.581520,54.585491 
	C54.365299,62.946209 53.578693,71.221336 55.808052,79.714638 
	C56.192356,81.178749 55.831924,83.345963 54.950508,84.560822 
	C29.510704,119.624733 48.789238,166.299164 91.537827,172.962921 
	C93.801598,173.315811 96.059502,173.706268 97.600784,173.960556 
	C95.687218,178.762894 93.948738,183.523026 91.855415,188.121613 
	C91.276146,189.394135 89.807106,190.620972 88.465721,191.131409 
	C75.611122,196.022858 65.021629,192.304291 57.075455,181.215927 
	C53.976982,176.892227 49.500168,173.525879 45.480259,169.913681 
	C44.438160,168.977280 42.730648,168.256775 41.365650,168.314163 
	C38.568314,168.431732 35.795952,169.143311 33.013309,169.610336 
	C34.649002,171.524994 36.305710,173.422150 37.916126,175.357834 
	C41.597935,179.783279 46.794991,183.670532 48.641071,188.767212 
	C54.499142,204.940277 69.051804,209.965759 86.126984,207.638229 
	C87.600998,207.437302 89.057777,207.109940 90.950310,206.762848 
	C90.950310,214.506012 91.164696,221.980942 90.874290,229.436218 
	C90.683456,234.335175 87.049866,236.168381 81.770020,234.337494 
	C60.843407,227.080765 43.260288,214.908249 29.022303,197.972229 
	C13.738489,179.792236 4.971737,158.731613 1.377743,135.139908 
	C1.000000,133.933334 1.000000,132.866653 1.295731,131.270386 
	C1.394308,129.827194 1.197153,128.913589 1.000000,128.000000 
	C1.000000,121.312355 1.000000,114.624710 1.369980,107.313736 
	C9.574474,53.860329 45.517780,14.785494 96.669647,3.468504 
	C100.125961,2.703819 103.557137,1.825479 107.000000,1.000000 
	C115.354233,1.000000 123.708466,1.000000 132.699432,1.378381 
	C134.992432,1.897423 136.660034,1.957957 138.303329,2.190392 
	C186.897781,9.063817 227.636017,46.862995 238.058334,94.721642 
	C239.022980,99.151222 240.018692,103.574043 241.000000,108.000000 
	C241.000000,116.687569 241.000000,125.375130 241.000000,134.531342 
z"/>
<path fill="#FDFDFD" opacity="1.000000" stroke="none" 
	d="
M241.000000,107.531342 
	C240.018692,103.574043 239.022980,99.151222 238.058334,94.721642 
	C227.636017,46.862995 186.897781,9.063817 138.303329,2.190392 
	C136.660034,1.957957 134.992432,1.897423 133.168076,1.378381 
	C168.926605,1.000000 204.853210,1.000000 241.000000,1.000000 
	C241.000000,36.353924 241.000000,71.708305 241.000000,107.531342 
z"/>
<path fill="#FDFDFD" opacity="1.000000" stroke="none" 
	d="
M106.531342,1.000000 
	C103.557137,1.825479 100.125961,2.703819 96.669647,3.468504 
	C45.517780,14.785494 9.574474,53.860329 1.369980,106.845200 
	C1.000000,71.739723 1.000000,36.479443 1.000000,1.000000 
	C36.020588,1.000000 71.041634,1.000000 106.531342,1.000000 
z"/>
<path fill="#575757" opacity="1.000000" stroke="none" 
	d="
M1.000000,128.375000 
	C1.197153,128.913589 1.394308,129.827194 1.295731,130.870392 
	C1.000000,130.250000 1.000000,129.500000 1.000000,128.375000 
z"/>
</svg>