<svg version="1.1" id="Layer_1" xmlns="http://www.w3.org/2000/svg" xmlns:xlink="http://www.w3.org/1999/xlink" x="0px" y="0px"
	 width="100%" viewBox="0 0 860 627" enable-background="new 0 0 860 627" xml:space="preserve">
<path fill="#F7F7F7" opacity="1.000000" stroke="none" 
	d="
M609.000000,628.000000 
	C406.000000,628.000000 203.500000,628.000000 1.000000,628.000000 
	C1.000000,419.000000 1.000000,210.000000 1.000000,1.000000 
	C287.666656,1.000000 574.333313,1.000000 861.000000,1.000000 
	C861.000000,210.000000 861.000000,419.000000 861.000000,628.000000 
	C777.166687,628.000000 693.333313,628.000000 609.000000,628.000000 
M346.499939,578.130920 
	C355.918762,578.130920 365.337555,578.130920 375.151367,578.130920 
	C375.151367,522.299805 375.151367,467.230804 375.151367,412.302979 
	C412.964325,412.302979 450.362854,412.302979 488.165588,412.302979 
	C488.165588,467.724304 488.165588,522.804321 488.165588,577.831055 
	C535.488403,577.831055 582.403442,577.831055 629.733276,577.831055 
	C629.733276,576.571716 629.733276,575.609436 629.733276,574.647095 
	C629.735229,516.151367 629.773560,457.655548 629.602600,399.160309 
	C629.595947,396.882904 628.105042,394.091278 626.430481,392.412231 
	C562.411255,328.221100 498.290039,264.131805 434.176605,200.034729 
	C433.291016,199.149368 432.331635,198.337784 431.360596,197.449631 
	C430.598114,198.121216 430.079498,198.529648 429.615906,198.993149 
	C364.797394,263.795410 299.970367,328.589203 235.251999,393.491333 
	C233.868118,394.879150 233.114059,397.513794 233.110077,399.568817 
	C232.997543,457.564392 233.018036,515.560181 233.028793,573.555969 
	C233.029053,574.997131 233.165466,576.438232 233.251099,578.130920 
	C270.883514,578.130920 308.191742,578.130920 346.499939,578.130920 
M614.513367,232.986603 
	C553.504456,171.983307 492.495483,110.980011 431.843140,50.333275 
	C339.155060,143.012802 246.684769,235.474518 154.756058,327.394714 
	C171.716034,344.351013 188.947678,361.578949 206.708420,379.335846 
	C281.260712,304.656494 356.230865,229.558640 431.502625,154.158600 
	C506.793549,229.451981 581.909851,304.570709 656.626160,379.289490 
	C674.237000,361.689423 691.420654,344.516327 708.743591,327.204041 
	C677.683472,296.148132 646.348450,264.817322 614.513367,232.986603 
z"/>
<path fill="#010101" opacity="1.000000" stroke="none" 
	d="
M345.999939,578.130920 
	C308.191742,578.130920 270.883514,578.130920 233.251099,578.130920 
	C233.165466,576.438232 233.029053,574.997131 233.028793,573.555969 
	C233.018036,515.560181 232.997543,457.564392 233.110077,399.568817 
	C233.114059,397.513794 233.868118,394.879150 235.251999,393.491333 
	C299.970367,328.589203 364.797394,263.795410 429.615906,198.993149 
	C430.079498,198.529648 430.598114,198.121216 431.360596,197.449631 
	C432.331635,198.337784 433.291016,199.149368 434.176605,200.034729 
	C498.290039,264.131805 562.411255,328.221100 626.430481,392.412231 
	C628.105042,394.091278 629.595947,396.882904 629.602600,399.160309 
	C629.773560,457.655548 629.735229,516.151367 629.733276,574.647095 
	C629.733276,575.609436 629.733276,576.571716 629.733276,577.831055 
	C582.403442,577.831055 535.488403,577.831055 488.165588,577.831055 
	C488.165588,522.804321 488.165588,467.724304 488.165588,412.302979 
	C450.362854,412.302979 412.964325,412.302979 375.151367,412.302979 
	C375.151367,467.230804 375.151367,522.299805 375.151367,578.130920 
	C365.337555,578.130920 355.918762,578.130920 345.999939,578.130920 
z"/>
<path fill="#000000" opacity="1.000000" stroke="none" 
	d="
M614.763367,233.236557 
	C646.348450,264.817322 677.683472,296.148132 708.743591,327.204041 
	C691.420654,344.516327 674.237000,361.689423 656.626160,379.289490 
	C581.909851,304.570709 506.793549,229.451981 431.502625,154.158600 
	C356.230865,229.558640 281.260712,304.656494 206.708420,379.335846 
	C188.947678,361.578949 171.716034,344.351013 154.756058,327.394714 
	C246.684769,235.474518 339.155060,143.012802 431.843140,50.333275 
	C492.495483,110.980011 553.504456,171.983307 614.763367,233.236557 
z"/>
</svg>