<?xml version="1.0" standalone="no"?>
<!DOCTYPE svg PUBLIC "-//W3C//DTD SVG 20010904//EN"
 "http://www.w3.org/TR/2001/REC-SVG-20010904/DTD/svg10.dtd">
<svg version="1.0" xmlns="http://www.w3.org/2000/svg"
 width="512.000000pt" height="512.000000pt" viewBox="0 0 512.000000 512.000000"
 preserveAspectRatio="xMidYMid meet">

<g transform="translate(0.000000,512.000000) scale(0.100000,-0.100000)"
fill="#000000" stroke="none">
<path d="M2503 5110 c-41 -17 -2459 -1837 -2477 -1865 -59 -89 -2 -222 102
-241 20 -4 52 -3 72 3 23 6 448 319 1198 881 l1162 872 1158 -868 c636 -478
1167 -874 1179 -880 34 -19 94 -14 137 11 77 43 107 153 62 222 -19 29 -2443
1851 -2482 1865 -31 12 -81 12 -111 0z"/>
<path d="M2503 4215 c-33 -14 -1995 -1486 -2051 -1538 -18 -17 -37 -47 -42
-67 -6 -22 -10 -485 -10 -1255 l0 -1221 23 -44 c14 -30 36 -53 62 -67 l40 -23
714 0 c703 0 715 0 757 21 24 11 53 35 64 54 20 33 21 43 20 699 l0 666 480 0
480 0 2 -668 3 -669 29 -37 c53 -69 17 -67 819 -64 l722 3 34 24 c18 13 42 42
52 65 18 39 19 93 19 1269 0 1346 4 1265 -61 1322 -81 71 -2013 1518 -2044
1531 -42 17 -71 17 -112 -1z"/>
</g>
</svg>
