<svg version="1.1" id="Layer_1" xmlns="http://www.w3.org/2000/svg" xmlns:xlink="http://www.w3.org/1999/xlink" x="0px" y="0px"
	 width="100%" viewBox="0 0 512 512" enable-background="new 0 0 512 512" xml:space="preserve">
<path fill="#FEFEFE" opacity="1.000000" stroke="none" 
	d="
M513.000000,185.000000 
	C513.000000,294.640015 513.000000,403.780029 513.000000,512.960022 
	C342.401642,512.960022 171.803268,512.960022 1.102453,512.960022 
	C1.102453,342.443359 1.102453,171.886612 1.102453,1.164938 
	C171.666534,1.164938 342.333252,1.164938 513.000000,1.164938 
	C513.000000,62.196690 513.000000,123.348343 513.000000,185.000000 
M437.256012,58.224197 
	C426.514374,49.588520 414.450928,43.495861 401.489227,38.864746 
	C378.187408,30.539202 353.880188,29.576012 329.631622,29.284006 
	C284.150208,28.736307 238.656494,28.773834 193.171906,29.110462 
	C170.567108,29.277760 147.851440,29.495525 125.690765,35.022202 
	C81.987724,45.921345 52.356281,72.276161 37.945438,115.270973 
	C30.371254,137.868591 29.556870,161.373444 29.289440,184.794952 
	C28.772005,230.111633 28.781605,275.439362 29.111187,320.758606 
	C29.275602,343.366394 29.513309,366.082489 35.010468,388.248322 
	C45.755802,431.575989 71.809692,461.128235 114.281799,475.749969 
	C136.981613,483.564819 160.667145,484.452637 184.259705,484.721771 
	C229.907272,485.242554 275.566193,485.234436 321.216095,484.885223 
	C343.653534,484.713562 366.199127,484.469666 388.203766,478.997681 
	C431.926575,468.124878 461.596161,441.800140 476.028778,398.810608 
	C483.666412,376.060699 484.383575,352.385162 484.718903,328.791199 
	C485.270630,289.973083 485.448242,251.139816 485.023163,212.321259 
	C484.766357,188.870422 484.173615,165.321671 481.764526,142.020294 
	C478.319000,108.694366 464.282990,80.224800 437.256012,58.224197 
z"/>
<path fill="#07080A" opacity="1.000000" stroke="none" 
	d="
M437.517700,58.466042 
	C464.282990,80.224800 478.319000,108.694366 481.764526,142.020294 
	C484.173615,165.321671 484.766357,188.870422 485.023163,212.321259 
	C485.448242,251.139816 485.270630,289.973083 484.718903,328.791199 
	C484.383575,352.385162 483.666412,376.060699 476.028778,398.810608 
	C461.596161,441.800140 431.926575,468.124878 388.203766,478.997681 
	C366.199127,484.469666 343.653534,484.713562 321.216095,484.885223 
	C275.566193,485.234436 229.907272,485.242554 184.259705,484.721771 
	C160.667145,484.452637 136.981613,483.564819 114.281799,475.749969 
	C71.809692,461.128235 45.755802,431.575989 35.010468,388.248322 
	C29.513309,366.082489 29.275602,343.366394 29.111187,320.758606 
	C28.781605,275.439362 28.772005,230.111633 29.289440,184.794952 
	C29.556870,161.373444 30.371254,137.868591 37.945438,115.270973 
	C52.356281,72.276161 81.987724,45.921345 125.690765,35.022202 
	C147.851440,29.495525 170.567108,29.277760 193.171906,29.110462 
	C238.656494,28.773834 284.150208,28.736307 329.631622,29.284006 
	C353.880188,29.576012 378.187408,30.539202 401.489227,38.864746 
	C414.450928,43.495861 426.514374,49.588520 437.517700,58.466042 
M336.485657,70.904442 
	C328.335358,70.661560 320.184845,70.204834 312.034760,70.211838 
	C271.050232,70.247063 230.061523,70.098564 189.083435,70.670341 
	C173.157913,70.892548 157.057251,71.637962 141.384827,74.242134 
	C107.219910,79.919075 84.763191,99.556976 75.734215,133.587967 
	C70.986084,151.484100 70.908394,169.848770 70.591270,188.112671 
	C70.038841,219.928055 69.731453,251.760910 70.143028,283.575806 
	C70.500244,311.188782 71.024002,338.864655 73.221893,366.373047 
	C76.261490,404.415955 99.810524,431.516907 137.179565,438.681000 
	C157.439911,442.565155 178.486832,443.222534 199.211700,443.617920 
	C237.690643,444.352020 276.196625,444.109436 314.685181,443.699005 
	C331.966705,443.514740 349.335266,442.821716 366.486206,440.827637 
	C404.402313,436.419312 431.767578,415.018433 438.743652,376.719025 
	C442.444336,356.401947 443.224396,335.395294 443.617798,314.667542 
	C444.348053,276.189362 444.240692,237.681168 443.656311,199.197998 
	C443.361389,179.775131 442.676636,160.156403 439.660950,141.021378 
	C434.436829,107.873001 415.350433,85.044640 382.374542,76.534706 
	C367.895233,72.798111 352.468475,72.733078 336.485657,70.904442 
z"/>
<path fill="#FEFEFE" opacity="1.000000" stroke="none" 
	d="
M336.978760,70.952690 
	C352.468475,72.733078 367.895233,72.798111 382.374542,76.534706 
	C415.350433,85.044640 434.436829,107.873001 439.660950,141.021378 
	C442.676636,160.156403 443.361389,179.775131 443.656311,199.197998 
	C444.240692,237.681168 444.348053,276.189362 443.617798,314.667542 
	C443.224396,335.395294 442.444336,356.401947 438.743652,376.719025 
	C431.767578,415.018433 404.402313,436.419312 366.486206,440.827637 
	C349.335266,442.821716 331.966705,443.514740 314.685181,443.699005 
	C276.196625,444.109436 237.690643,444.352020 199.211700,443.617920 
	C178.486832,443.222534 157.439911,442.565155 137.179565,438.681000 
	C99.810524,431.516907 76.261490,404.415955 73.221893,366.373047 
	C71.024002,338.864655 70.500244,311.188782 70.143028,283.575806 
	C69.731453,251.760910 70.038841,219.928055 70.591270,188.112671 
	C70.908394,169.848770 70.986084,151.484100 75.734215,133.587967 
	C84.763191,99.556976 107.219910,79.919075 141.384827,74.242134 
	C157.057251,71.637962 173.157913,70.892548 189.083435,70.670341 
	C230.061523,70.098564 271.050232,70.247063 312.034760,70.211838 
	C320.184845,70.204834 328.335358,70.661560 336.978760,70.952690 
M140.558060,270.868744 
	C147.491211,331.910095 202.432999,380.476654 269.176575,373.656769 
	C332.521667,367.184143 380.251068,311.270111 373.673309,245.536224 
	C367.148224,180.328522 308.984985,133.105835 245.268814,140.212982 
	C179.643311,147.533096 133.532608,204.579300 140.558060,270.868744 
M352.735931,126.439293 
	C352.367401,128.049545 351.927094,129.647202 351.641998,131.272079 
	C349.798737,141.777557 354.894287,152.836029 364.179352,158.558762 
	C374.076843,164.658936 386.394012,164.087357 395.481445,157.106171 
	C404.368622,150.278824 408.376038,138.597397 405.387146,128.231659 
	C402.125641,116.920494 392.812683,108.788948 382.125916,107.921318 
	C368.517365,106.816475 359.005890,112.600174 352.735931,126.439293 
z"/>
<path fill="#07080A" opacity="1.000000" stroke="none" 
	d="
M140.471954,270.419250 
	C133.532608,204.579300 179.643311,147.533096 245.268814,140.212982 
	C308.984985,133.105835 367.148224,180.328522 373.673309,245.536224 
	C380.251068,311.270111 332.521667,367.184143 269.176575,373.656769 
	C202.432999,380.476654 147.491211,331.910095 140.471954,270.419250 
M305.120148,198.347549 
	C292.338806,187.961792 277.729950,182.075424 261.294830,181.201828 
	C213.329666,178.652252 175.833527,219.518875 181.897629,267.574432 
	C188.448944,319.490906 247.951355,349.382385 293.395905,323.586487 
	C340.589233,296.797882 346.674957,234.917664 305.120148,198.347549 
z"/>
<path fill="#08090B" opacity="1.000000" stroke="none" 
	d="
M352.833923,126.056381 
	C359.005890,112.600174 368.517365,106.816475 382.125916,107.921318 
	C392.812683,108.788948 402.125641,116.920494 405.387146,128.231659 
	C408.376038,138.597397 404.368622,150.278824 395.481445,157.106171 
	C386.394012,164.087357 374.076843,164.658936 364.179352,158.558762 
	C354.894287,152.836029 349.798737,141.777557 351.641998,131.272079 
	C351.927094,129.647202 352.367401,128.049545 352.833923,126.056381 
z"/>
<path fill="#FEFEFE" opacity="1.000000" stroke="none" 
	d="
M305.393982,198.576218 
	C346.674957,234.917664 340.589233,296.797882 293.395905,323.586487 
	C247.951355,349.382385 188.448944,319.490906 181.897629,267.574432 
	C175.833527,219.518875 213.329666,178.652252 261.294830,181.201828 
	C277.729950,182.075424 292.338806,187.961792 305.393982,198.576218 
z"/>
</svg>