<svg version="1.1" id="Layer_1" xmlns="http://www.w3.org/2000/svg" xmlns:xlink="http://www.w3.org/1999/xlink" x="0px" y="0px"
	 width="100%" viewBox="0 0 225 225" enable-background="new 0 0 225 225" xml:space="preserve">
<path fill="#FEFEFE" opacity="1.000000" stroke="none" 
	d="
M126.000000,226.000000 
	C84.000000,226.000000 42.500004,226.000000 1.000005,226.000000 
	C1.000004,151.000000 1.000004,76.000015 1.000002,1.000016 
	C75.999992,1.000010 150.999985,1.000010 225.999969,1.000005 
	C225.999985,75.999985 225.999985,150.999969 226.000000,225.999969 
	C192.833328,226.000000 159.666672,226.000000 126.000000,226.000000 
M186.050827,12.263274 
	C166.557800,4.613399 147.325119,5.294166 130.725250,18.235868 
	C117.466331,28.572866 106.135963,41.383537 93.949577,53.096233 
	C105.665764,52.385742 116.553284,53.647816 127.259262,57.097427 
	C128.371017,57.455647 130.333237,56.595592 131.319656,55.676826 
	C135.706390,51.590981 139.708496,47.085110 144.166931,43.084675 
	C155.651291,32.780022 172.694901,33.324703 183.425415,44.134426 
	C193.716293,54.501289 194.343872,71.692215 183.982330,82.560265 
	C170.305527,96.905670 156.205643,110.863785 141.922302,124.608734 
	C133.609268,132.608414 121.027985,133.891235 110.801834,128.722382 
	C103.708054,125.136787 99.099121,119.308868 96.341179,111.447212 
	C89.390480,118.899643 82.859032,125.902557 76.033844,133.220413 
	C75.813385,132.717926 75.960045,133.195831 76.213097,133.608490 
	C94.301582,163.105759 135.900925,168.699844 161.449173,144.692047 
	C175.276611,131.698349 188.543488,118.097427 201.837112,104.548553 
	C230.613129,75.220016 223.288986,31.225422 186.050827,12.263274 
M123.411171,70.915924 
	C100.864792,63.421791 80.705269,67.536720 63.537476,83.989922 
	C49.952374,97.009544 36.669167,110.359207 23.597897,123.896400 
	C4.077290,144.112823 2.202417,174.840942 18.763786,196.972321 
	C35.292576,219.060165 65.311150,225.699615 90.298302,212.790512 
	C91.036400,212.409180 91.864563,212.108841 92.463127,211.564453 
	C106.145226,199.120926 119.801155,186.648636 133.461975,174.181717 
	C127.158806,173.307114 121.808472,173.742798 116.563377,173.186340 
	C111.161636,172.613266 105.885841,170.930542 100.503128,170.050049 
	C99.031776,169.809372 96.925568,170.215134 95.880020,171.168213 
	C91.452362,175.204193 87.424400,179.675446 83.049347,183.773010 
	C71.881866,194.232178 54.684082,193.907837 43.863537,183.159607 
	C33.288456,172.655243 32.548241,155.227936 42.945190,144.370239 
	C56.421043,130.297180 70.262512,116.560410 84.284180,103.028687 
	C93.615822,94.023109 106.930405,92.782890 117.945305,99.199257 
	C124.161003,102.820007 128.132874,108.383667 130.617676,115.605400 
	C137.561462,108.127335 144.078308,101.109070 150.952728,93.705711 
	C145.311356,83.439018 135.816055,76.049713 123.411171,70.915924 
z"/>
<path fill="#030303" opacity="1.000000" stroke="none" 
	d="
M186.362274,12.484837 
	C223.288986,31.225422 230.613129,75.220016 201.837112,104.548553 
	C188.543488,118.097427 175.276611,131.698349 161.449173,144.692047 
	C135.900925,168.699844 94.301582,163.105759 76.213097,133.608490 
	C75.960045,133.195831 75.813385,132.717926 76.033844,133.220413 
	C82.859032,125.902557 89.390480,118.899643 96.341179,111.447212 
	C99.099121,119.308868 103.708054,125.136787 110.801834,128.722382 
	C121.027985,133.891235 133.609268,132.608414 141.922302,124.608734 
	C156.205643,110.863785 170.305527,96.905670 183.982330,82.560265 
	C194.343872,71.692215 193.716293,54.501289 183.425415,44.134426 
	C172.694901,33.324703 155.651291,32.780022 144.166931,43.084675 
	C139.708496,47.085110 135.706390,51.590981 131.319656,55.676826 
	C130.333237,56.595592 128.371017,57.455647 127.259262,57.097427 
	C116.553284,53.647816 105.665764,52.385742 93.949577,53.096233 
	C106.135963,41.383537 117.466331,28.572866 130.725250,18.235868 
	C147.325119,5.294166 166.557800,4.613399 186.362274,12.484837 
z"/>
<path fill="#030303" opacity="1.000000" stroke="none" 
	d="
M123.786858,71.026039 
	C135.816055,76.049713 145.311356,83.439018 150.952728,93.705711 
	C144.078308,101.109070 137.561462,108.127335 130.617676,115.605400 
	C128.132874,108.383667 124.161003,102.820007 117.945305,99.199257 
	C106.930405,92.782890 93.615822,94.023109 84.284180,103.028687 
	C70.262512,116.560410 56.421043,130.297180 42.945190,144.370239 
	C32.548241,155.227936 33.288456,172.655243 43.863537,183.159607 
	C54.684082,193.907837 71.881866,194.232178 83.049347,183.773010 
	C87.424400,179.675446 91.452362,175.204193 95.880020,171.168213 
	C96.925568,170.215134 99.031776,169.809372 100.503128,170.050049 
	C105.885841,170.930542 111.161636,172.613266 116.563377,173.186340 
	C121.808472,173.742798 127.158806,173.307114 133.461975,174.181717 
	C119.801155,186.648636 106.145226,199.120926 92.463127,211.564453 
	C91.864563,212.108841 91.036400,212.409180 90.298302,212.790512 
	C65.311150,225.699615 35.292576,219.060165 18.763786,196.972321 
	C2.202417,174.840942 4.077290,144.112823 23.597897,123.896400 
	C36.669167,110.359207 49.952374,97.009544 63.537476,83.989922 
	C80.705269,67.536720 100.864792,63.421791 123.786858,71.026039 
z"/>
</svg>