<svg version="1.1" id="Layer_1" xmlns="http://www.w3.org/2000/svg" xmlns:xlink="http://www.w3.org/1999/xlink" x="0px" y="0px"
	 width="100%" viewBox="0 0 300 315" enable-background="new 0 0 300 315" xml:space="preserve">
<path fill="#F5F5F5" opacity="1.000000" stroke="none" 
	d="
M178.000000,316.000000 
	C118.666695,316.000000 59.833389,316.000000 1.000063,316.000000 
	C1.000042,211.000076 1.000042,106.000153 1.000021,1.000176 
	C100.999878,1.000117 200.999756,1.000117 300.999725,1.000059 
	C300.999817,105.999825 300.999817,210.999649 300.999908,315.999756 
	C260.166656,316.000000 219.333328,316.000000 178.000000,316.000000 
M13.488568,270.865631 
	C20.928295,292.216095 38.695446,304.961670 61.234703,304.972778 
	C120.544533,305.002045 179.854385,304.989716 239.164230,304.981537 
	C270.025818,304.977264 290.813538,284.160797 290.832550,253.204163 
	C290.857788,212.053802 290.855286,170.903412 290.833008,129.753052 
	C290.816284,98.789040 270.072418,78.019707 239.148834,78.010201 
	C180.505386,77.992157 121.861954,77.994179 63.218510,78.009125 
	C31.676739,78.017166 11.143829,98.671806 11.137143,130.368225 
	C11.128532,171.185394 11.054162,212.002914 11.227317,252.819336 
	C11.251782,258.586182 12.515327,264.347778 13.488568,270.865631 
M176.268158,15.093312 
	C166.722900,10.654269 156.549042,10.910758 146.368515,10.973807 
	C119.318222,11.141334 98.695534,30.099070 96.509773,56.924469 
	C95.909813,64.287796 99.529709,69.418205 105.721390,69.979881 
	C112.131981,70.561401 116.515297,66.003929 116.960098,58.294647 
	C117.754883,44.519619 127.945274,33.339134 141.711548,31.848492 
	C147.631119,31.207510 153.723236,31.178087 159.648331,31.765274 
	C173.997406,33.187302 184.199371,44.297871 185.011917,58.693188 
	C185.414001,65.816574 189.524887,70.201096 195.617737,70.004974 
	C201.912872,69.802353 205.882004,64.864326 205.372772,57.504421 
	C204.024643,38.020420 194.306396,24.124464 176.268158,15.093312 
z"/>
<path fill="#040404" opacity="1.000000" stroke="none" 
	d="
M13.346962,270.488708 
	C12.515327,264.347778 11.251782,258.586182 11.227317,252.819336 
	C11.054162,212.002914 11.128532,171.185394 11.137143,130.368225 
	C11.143829,98.671806 31.676739,78.017166 63.218510,78.009125 
	C121.861954,77.994179 180.505386,77.992157 239.148834,78.010201 
	C270.072418,78.019707 290.816284,98.789040 290.833008,129.753052 
	C290.855286,170.903412 290.857788,212.053802 290.832550,253.204163 
	C290.813538,284.160797 270.025818,304.977264 239.164230,304.981537 
	C179.854385,304.989716 120.544533,305.002045 61.234703,304.972778 
	C38.695446,304.961670 20.928295,292.216095 13.346962,270.488708 
M70.501526,182.362320 
	C126.622787,182.363800 182.744049,182.375031 238.865311,182.361542 
	C258.831696,182.356735 270.209290,171.046005 270.243927,151.235748 
	C270.256439,144.074875 269.850250,136.887680 270.323944,129.758255 
	C271.512787,111.866013 257.858948,97.997734 238.986115,98.294357 
	C206.353867,98.807259 173.707718,98.435921 141.067398,98.436272 
	C114.588768,98.436546 88.109970,98.380424 61.631569,98.458832 
	C43.673145,98.512001 31.870888,110.299866 31.766048,128.130966 
	C31.713177,137.123199 31.586044,146.121323 31.831059,155.107544 
	C32.228470,169.683090 43.491730,181.261368 58.017338,182.212402 
	C61.832706,182.462219 65.673515,182.323517 70.501526,182.362320 
M256.076355,200.773026 
	C250.651489,201.488022 245.228149,202.811035 239.801529,202.824661 
	C180.508698,202.973541 121.215355,202.899063 61.922184,202.936417 
	C52.207668,202.942551 43.140602,200.764267 34.786972,195.741531 
	C34.006645,195.272354 33.112637,194.992218 31.945429,194.481735 
	C31.867575,196.241287 31.760954,197.537628 31.760265,198.834015 
	C31.750366,217.488052 31.703575,236.142273 31.770350,254.796082 
	C31.834326,272.668488 43.624809,284.562683 61.544674,284.583984 
	C121.170891,284.654846 180.797302,284.654968 240.423508,284.583191 
	C258.351532,284.561615 270.156311,272.685486 270.228546,254.825974 
	C270.304688,236.005692 270.253723,217.184830 270.231598,198.364273 
	C270.230194,197.150436 269.999756,195.936844 269.874420,194.709061 
	C265.260590,196.746063 261.041412,198.608826 256.076355,200.773026 
z"/>
<path fill="#040404" opacity="1.000000" stroke="none" 
	d="
M176.614716,15.249638 
	C194.306396,24.124464 204.024643,38.020420 205.372772,57.504421 
	C205.882004,64.864326 201.912872,69.802353 195.617737,70.004974 
	C189.524887,70.201096 185.414001,65.816574 185.011917,58.693188 
	C184.199371,44.297871 173.997406,33.187302 159.648331,31.765274 
	C153.723236,31.178087 147.631119,31.207510 141.711548,31.848492 
	C127.945274,33.339134 117.754883,44.519619 116.960098,58.294647 
	C116.515297,66.003929 112.131981,70.561401 105.721390,69.979881 
	C99.529709,69.418205 95.909813,64.287796 96.509773,56.924469 
	C98.695534,30.099070 119.318222,11.141334 146.368515,10.973807 
	C156.549042,10.910758 166.722900,10.654269 176.614716,15.249638 
z"/>
<path fill="#F4F4F4" opacity="1.000000" stroke="none" 
	d="
M70.002083,182.362778 
	C65.673515,182.323517 61.832706,182.462219 58.017338,182.212402 
	C43.491730,181.261368 32.228470,169.683090 31.831059,155.107544 
	C31.586044,146.121323 31.713177,137.123199 31.766048,128.130966 
	C31.870888,110.299866 43.673145,98.512001 61.631569,98.458832 
	C88.109970,98.380424 114.588768,98.436546 141.067398,98.436272 
	C173.707718,98.435921 206.353867,98.807259 238.986115,98.294357 
	C257.858948,97.997734 271.512787,111.866013 270.323944,129.758255 
	C269.850250,136.887680 270.256439,144.074875 270.243927,151.235748 
	C270.209290,171.046005 258.831696,182.356735 238.865311,182.361542 
	C182.744049,182.375031 126.622787,182.363800 70.002083,182.362778 
z"/>
<path fill="#F4F4F4" opacity="1.000000" stroke="none" 
	d="
M256.449280,200.622299 
	C261.041412,198.608826 265.260590,196.746063 269.874420,194.709061 
	C269.999756,195.936844 270.230194,197.150436 270.231598,198.364273 
	C270.253723,217.184830 270.304688,236.005692 270.228546,254.825974 
	C270.156311,272.685486 258.351532,284.561615 240.423508,284.583191 
	C180.797302,284.654968 121.170891,284.654846 61.544674,284.583984 
	C43.624809,284.562683 31.834326,272.668488 31.770350,254.796082 
	C31.703575,236.142273 31.750366,217.488052 31.760265,198.834015 
	C31.760954,197.537628 31.867575,196.241287 31.945429,194.481735 
	C33.112637,194.992218 34.006645,195.272354 34.786972,195.741531 
	C43.140602,200.764267 52.207668,202.942551 61.922184,202.936417 
	C121.215355,202.899063 180.508698,202.973541 239.801529,202.824661 
	C245.228149,202.811035 250.651489,201.488022 256.449280,200.622299 
M84.551109,227.302612 
	C84.462158,224.810272 84.640152,222.272766 84.227798,219.835129 
	C83.410637,215.004562 78.678574,211.965240 74.220779,213.350098 
	C69.584679,214.790375 67.710991,218.224701 68.004242,222.946579 
	C68.359138,228.661133 66.049698,235.525085 73.963593,238.160629 
	C79.944893,240.152573 84.152542,236.066132 84.551109,227.302612 
M222.565491,213.770370 
	C214.840469,217.759338 217.736755,224.951294 217.683441,231.018799 
	C217.643143,235.603271 221.574585,238.713348 225.862259,238.624191 
	C230.115875,238.535751 233.570404,235.263184 233.908676,230.716873 
	C234.116852,227.918915 234.030182,225.092133 233.956726,222.281418 
	C233.782745,215.624451 230.163361,212.660645 222.565491,213.770370 
z"/>
<path fill="#090909" opacity="1.000000" stroke="none" 
	d="
M84.550537,227.737183 
	C84.152542,236.066132 79.944893,240.152573 73.963593,238.160629 
	C66.049698,235.525085 68.359138,228.661133 68.004242,222.946579 
	C67.710991,218.224701 69.584679,214.790375 74.220779,213.350098 
	C78.678574,211.965240 83.410637,215.004562 84.227798,219.835129 
	C84.640152,222.272766 84.462158,224.810272 84.550537,227.737183 
z"/>
<path fill="#0A0A0A" opacity="1.000000" stroke="none" 
	d="
M222.921387,213.611450 
	C230.163361,212.660645 233.782745,215.624451 233.956726,222.281418 
	C234.030182,225.092133 234.116852,227.918915 233.908676,230.716873 
	C233.570404,235.263184 230.115875,238.535751 225.862259,238.624191 
	C221.574585,238.713348 217.643143,235.603271 217.683441,231.018799 
	C217.736755,224.951294 214.840469,217.759338 222.921387,213.611450 
z"/>
</svg>