<svg version="1.1" id="Layer_1" xmlns="http://www.w3.org/2000/svg" xmlns:xlink="http://www.w3.org/1999/xlink" x="0px" y="0px"
	 width="100%" viewBox="0 0 816 352" enable-background="new 0 0 816 352" xml:space="preserve">
<path fill="#000000" opacity="1.000000" stroke="none" 
	d="
M467.999878,316.378967 
	C389.504791,316.377869 311.509705,316.385895 233.514603,316.365692 
	C222.423630,316.362823 214.167923,310.079834 211.293045,299.823303 
	C210.217255,295.985321 210.751770,292.894348 213.469452,289.717072 
	C223.866241,277.562042 233.956635,265.145447 244.299576,252.943573 
	C246.708496,250.101700 247.720367,247.185165 247.714676,243.438278 
	C247.621750,182.275604 247.851898,121.111488 247.474197,59.951008 
	C247.401245,48.139275 254.948181,41.447159 265.723999,41.480705 
	C362.383667,41.781647 459.045074,41.792267 555.704712,41.487350 
	C567.857239,41.449017 574.588745,48.597855 574.515808,60.428867 
	C574.140869,121.256058 574.378540,182.086868 574.273926,242.916199 
	C574.266907,247.010330 575.311707,250.198914 577.975403,253.323380 
	C588.352539,265.495514 598.436584,277.917572 608.813538,290.089844 
	C611.420166,293.147522 611.780273,296.203552 610.751343,299.794281 
	C607.844788,309.937683 599.566040,316.344696 588.991943,316.355011 
	C548.827942,316.394226 508.663910,316.375916 467.999878,316.378967 
M269.344177,202.499863 
	C269.345490,208.164322 269.342529,213.828766 269.349030,219.493225 
	C269.362000,230.817520 274.128174,235.646240 285.342590,235.647263 
	C368.809235,235.654816 452.275848,235.657761 535.742493,235.655472 
	C548.141785,235.655136 552.654175,231.176315 552.656616,218.855728 
	C552.666443,170.041916 552.665222,121.228104 552.663208,72.414291 
	C552.662659,60.163185 548.445068,55.965313 536.107849,55.964848 
	C452.474640,55.961700 368.841461,55.963490 285.208252,55.969326 
	C273.600037,55.970135 269.355133,60.273102 269.352661,72.051643 
	C269.343506,115.201057 269.346375,158.350464 269.344177,202.499863 
M441.500000,292.966248 
	C450.572205,292.966248 459.644409,292.966248 468.716614,292.966248 
	C468.919159,292.440338 469.121674,291.914429 469.324219,291.388519 
	C464.958252,287.947601 463.949371,280.970886 456.251495,280.995331 
	C426.263794,281.090515 396.275543,280.998047 366.287598,281.033905 
	C360.433563,281.040924 355.050568,286.180969 354.076935,292.965424 
	C382.943756,292.965424 411.721893,292.965424 441.500000,292.966248 
M432.420654,307.958923 
	C434.253296,307.953613 436.087708,307.997223 437.918121,307.930817 
	C440.264130,307.845703 443.273773,307.882355 443.263550,304.824341 
	C443.252319,301.470490 440.026978,302.122864 437.840240,302.113007 
	C422.346161,302.043030 406.851715,302.063568 391.357361,302.054840 
	C388.525238,302.053223 385.691833,301.997528 382.861420,302.065887 
	C380.991180,302.111053 378.820953,302.303772 378.743805,304.704285 
	C378.659302,307.334381 380.869385,307.755402 382.963562,307.888824 
	C384.291687,307.973450 385.627869,307.944916 386.960419,307.945557 
	C401.788330,307.952362 416.616241,307.955017 432.420654,307.958923 
z"/>
</svg>