<?xml version="1.0" standalone="no"?>
<!DOCTYPE svg PUBLIC "-//W3C//DTD SVG 20010904//EN"
 "http://www.w3.org/TR/2001/REC-SVG-20010904/DTD/svg10.dtd">
<svg version="1.0" xmlns="http://www.w3.org/2000/svg"
 width="512.000000pt" height="512.000000pt" viewBox="0 0 512.000000 512.000000"
 preserveAspectRatio="xMidYMid meet">

<g transform="translate(0.000000,512.000000) scale(0.100000,-0.100000)"
fill="#000000" stroke="none">
<path d="M480 4831 c-102 -31 -189 -117 -220 -218 -20 -64 -20 -91 -20 -1309
l0 -1244 200 0 200 0 0 193 c0 221 12 297 64 402 41 84 125 179 201 230 52 34
154 76 218 90 l28 6 -29 37 c-92 117 -131 289 -98 440 23 111 70 196 151 277
172 172 411 214 632 109 179 -85 297 -262 310 -464 8 -133 -36 -278 -112 -368
l-26 -31 28 -7 c180 -39 330 -150 411 -301 58 -110 72 -190 72 -415 l0 -198
1195 0 1195 0 0 1244 c0 1234 0 1244 -21 1312 -27 88 -104 170 -192 202 l-58
22 -2052 -1 c-1129 0 -2063 -4 -2077 -8z m3774 -540 c52 -49 41 -121 -24 -153
-33 -17 -96 -18 -888 -18 -911 0 -905 0 -931 48 -14 26 -14 77 -1 102 27 51 0
50 942 47 l876 -2 26 -24z m0 -440 c52 -49 41 -121 -24 -153 -32 -17 -95 -18
-880 -18 -551 0 -858 4 -882 10 -21 6 -44 21 -53 33 -17 25 -20 79 -5 107 27
51 0 50 942 47 l876 -2 26 -24z m1 -441 c55 -56 33 -139 -44 -160 -27 -7 -281
-10 -801 -8 l-762 3 -29 33 c-32 35 -37 72 -15 111 29 52 3 51 843 48 l783 -2
25 -25z m-7 -435 c17 -14 33 -39 37 -55 7 -33 -15 -84 -44 -100 -13 -7 -287
-10 -809 -10 l-790 0 -26 31 c-28 33 -33 71 -12 108 29 52 5 50 838 51 l776 0
30 -25z m0 -440 c17 -14 33 -39 37 -55 7 -33 -15 -84 -44 -100 -13 -6 -240
-10 -661 -10 l-642 0 -29 29 c-30 31 -36 61 -19 105 21 56 10 55 697 56 l631
0 30 -25z"/>
<path d="M1455 3690 c-153 -51 -247 -180 -247 -340 -1 -108 28 -178 106 -256
77 -77 143 -104 251 -104 100 0 169 27 242 93 132 121 157 310 62 459 -89 138
-261 199 -414 148z"/>
<path d="M1104 2769 c-78 -26 -148 -80 -197 -149 -60 -86 -69 -129 -74 -357
l-6 -203 738 0 737 0 -4 208 c-4 186 -7 213 -27 265 -45 114 -137 202 -250
237 -59 19 -92 20 -460 20 -372 -1 -400 -2 -457 -21z"/>
<path d="M241 1707 c4 -160 4 -163 37 -229 36 -75 88 -123 168 -160 l49 -23
2065 0 2065 0 56 26 c73 34 134 96 167 168 25 52 27 68 30 219 l4 162 -2322 0
-2322 0 3 -163z m2434 -41 c39 -17 55 -42 55 -86 0 -73 -46 -100 -170 -100
-125 0 -170 27 -170 102 0 38 24 73 60 87 39 15 186 13 225 -3z"/>
<path d="M2036 1033 c-76 -179 -207 -367 -342 -491 l-78 -72 -349 0 -349 0
-29 -29 c-42 -42 -41 -99 2 -135 l31 -26 1638 0 1638 0 31 26 c43 36 44 93 2
135 l-29 29 -351 0 -350 0 -86 82 c-138 130 -265 317 -335 491 l-24 57 -496 0
-496 0 -28 -67z"/>
</g>
</svg>
