<svg version="1.1" id="Layer_1" xmlns="http://www.w3.org/2000/svg" xmlns:xlink="http://www.w3.org/1999/xlink" x="0px" y="0px"
	 width="100%" viewBox="0 0 300 300" enable-background="new 0 0 300 300" xml:space="preserve">
<path fill="#FF4501" opacity="1.000000" stroke="none" 
	d="
M176.000000,301.000000 
	C159.645767,301.000000 143.291550,301.000000 126.716469,300.629272 
	C125.988182,299.864258 125.519730,299.193604 124.967659,299.115723 
	C107.652954,296.673096 91.639725,290.575165 76.561829,281.886322 
	C50.739983,267.006134 30.938555,246.272537 17.036581,219.967163 
	C10.156771,206.949158 5.501048,193.105301 2.908183,178.579941 
	C2.797436,177.959518 1.659452,177.522476 1.000001,177.000000 
	C1.000000,159.979111 1.000000,142.958206 1.354482,125.741631 
	C2.111992,125.041588 2.779757,124.584839 2.880245,124.026070 
	C9.474080,87.360588 27.781912,57.689034 56.371090,34.102375 
	C76.280167,17.676973 98.854874,7.136838 124.358688,2.909544 
	C124.993851,2.804266 125.456757,1.659799 126.000000,1.000000 
	C142.354233,1.000000 158.708450,1.000000 175.283279,1.370540 
	C177.340775,2.180653 179.173462,2.638803 181.015198,3.057048 
	C216.015411,11.005306 245.156631,28.424389 267.938477,56.371891 
	C284.240723,76.370583 294.863953,98.866486 299.090424,124.361427 
	C299.195618,124.995705 300.340210,125.457664 301.000000,126.000000 
	C301.000000,142.354233 301.000000,158.708450 300.629852,175.282654 
	C299.816498,177.339264 299.350891,179.170822 298.933441,181.013306 
	C291.001648,216.021515 273.574463,245.157043 245.627365,267.938507 
	C225.629990,284.239655 203.134491,294.862946 177.640976,299.090607 
	C177.005905,299.195923 176.543121,300.340240 176.000000,301.000000 
M153.814560,83.214165 
	C151.426315,94.247353 149.038071,105.280533 146.585190,116.612320 
	C125.271370,117.092056 105.879105,123.288795 88.289085,134.909195 
	C86.831734,133.905853 85.647186,132.990158 84.371040,132.227814 
	C75.261505,126.785927 63.651192,128.645737 56.647758,136.636932 
	C49.755547,144.501251 49.356358,155.958160 55.684448,164.283966 
	C58.559132,168.066162 63.718548,179.803986 64.563278,184.447830 
	C67.790977,202.192017 78.921501,214.113403 93.608368,223.166153 
	C111.404434,234.135345 131.065552,238.531250 151.788498,238.384460 
	C176.797272,238.207306 199.975891,232.137939 219.514236,215.717133 
	C232.124954,205.118561 239.477325,191.728561 238.954742,174.817184 
	C238.865189,171.918823 239.997437,170.472046 242.194260,168.812897 
	C249.323410,163.428619 252.424713,156.056885 250.555069,147.274094 
	C248.608093,138.128021 242.631531,132.374725 233.504395,130.344955 
	C226.194168,128.719238 219.700699,131.013077 213.915527,135.871506 
	C196.547287,124.271446 177.444183,118.285011 156.308960,117.426689 
	C159.623611,101.531929 162.799210,86.304008 166.038727,70.769554 
	C175.623550,72.802681 184.693802,74.831429 193.815018,76.596809 
	C196.509308,77.118279 198.055496,77.966866 199.009201,80.855507 
	C201.212036,87.527489 207.370255,91.361382 214.027756,90.896545 
	C220.663300,90.433235 226.346359,85.494003 227.757492,78.963829 
	C229.114944,72.682251 226.067596,66.044350 220.349075,62.826397 
	C214.294342,59.419250 207.355515,60.657677 201.956451,65.571861 
	C200.558289,66.844475 197.940308,67.740578 196.120926,67.426994 
	C185.954208,65.674690 175.859192,63.505138 165.742584,61.463753 
	C159.866196,60.277988 158.413620,61.229240 157.131882,67.230598 
	C156.054214,72.276405 155.007446,77.328812 153.814560,83.214165 
z"/>
<path fill="#000000" opacity="1.000000" stroke="none" 
	d="
M301.000000,125.531342 
	C300.340210,125.457664 299.195618,124.995705 299.090424,124.361427 
	C294.863953,98.866486 284.240723,76.370583 267.938477,56.371891 
	C245.156631,28.424389 216.015411,11.005306 181.015198,3.057048 
	C179.173462,2.638803 177.340775,2.180653 175.751938,1.370540 
	C217.593643,1.000000 259.187286,1.000000 301.000000,1.000000 
	C301.000000,42.353970 301.000000,83.708328 301.000000,125.531342 
z"/>
<path fill="#000000" opacity="1.000000" stroke="none" 
	d="
M176.468658,301.000000 
	C176.543121,300.340240 177.005905,299.195923 177.640976,299.090607 
	C203.134491,294.862946 225.629990,284.239655 245.627365,267.938507 
	C273.574463,245.157043 291.001648,216.021515 298.933441,181.013306 
	C299.350891,179.170822 299.816498,177.339264 300.629852,175.751312 
	C301.000000,217.593643 301.000000,259.187286 301.000000,301.000000 
	C259.646027,301.000000 218.291672,301.000000 176.468658,301.000000 
z"/>
<path fill="#000000" opacity="1.000000" stroke="none" 
	d="
M125.531342,1.000000 
	C125.456757,1.659799 124.993851,2.804266 124.358688,2.909544 
	C98.854874,7.136838 76.280167,17.676973 56.371090,34.102375 
	C27.781912,57.689034 9.474080,87.360588 2.880245,124.026070 
	C2.779757,124.584839 2.111992,125.041588 1.354482,125.272972 
	C1.000000,83.739403 1.000000,42.478813 1.000000,1.000000 
	C42.353973,1.000000 83.708328,1.000000 125.531342,1.000000 
z"/>
<path fill="#000000" opacity="1.000000" stroke="none" 
	d="
M1.000001,177.468658 
	C1.659452,177.522476 2.797436,177.959518 2.908183,178.579941 
	C5.501048,193.105301 10.156771,206.949158 17.036581,219.967163 
	C30.938555,246.272537 50.739983,267.006134 76.561829,281.886322 
	C91.639725,290.575165 107.652954,296.673096 124.967659,299.115723 
	C125.519730,299.193604 125.988182,299.864258 126.247810,300.629272 
	C84.406654,301.000000 42.813313,301.000000 1.000000,301.000000 
	C1.000000,259.979370 1.000000,218.958344 1.000001,177.468658 
z"/>
<path fill="#FFFEFD" opacity="1.000000" stroke="none" 
	d="
M153.880783,82.796234 
	C155.007446,77.328812 156.054214,72.276405 157.131882,67.230598 
	C158.413620,61.229240 159.866196,60.277988 165.742584,61.463753 
	C175.859192,63.505138 185.954208,65.674690 196.120926,67.426994 
	C197.940308,67.740578 200.558289,66.844475 201.956451,65.571861 
	C207.355515,60.657677 214.294342,59.419250 220.349075,62.826397 
	C226.067596,66.044350 229.114944,72.682251 227.757492,78.963829 
	C226.346359,85.494003 220.663300,90.433235 214.027756,90.896545 
	C207.370255,91.361382 201.212036,87.527489 199.009201,80.855507 
	C198.055496,77.966866 196.509308,77.118279 193.815018,76.596809 
	C184.693802,74.831429 175.623550,72.802681 166.038727,70.769554 
	C162.799210,86.304008 159.623611,101.531929 156.308960,117.426689 
	C177.444183,118.285011 196.547287,124.271446 213.915527,135.871506 
	C219.700699,131.013077 226.194168,128.719238 233.504395,130.344955 
	C242.631531,132.374725 248.608093,138.128021 250.555069,147.274094 
	C252.424713,156.056885 249.323410,163.428619 242.194260,168.812897 
	C239.997437,170.472046 238.865189,171.918823 238.954742,174.817184 
	C239.477325,191.728561 232.124954,205.118561 219.514236,215.717133 
	C199.975891,232.137939 176.797272,238.207306 151.788498,238.384460 
	C131.065552,238.531250 111.404434,234.135345 93.608368,223.166153 
	C78.921501,214.113403 67.790977,202.192017 64.563278,184.447830 
	C63.718548,179.803986 58.559132,168.066162 55.684448,164.283966 
	C49.356358,155.958160 49.755547,144.501251 56.647758,136.636932 
	C63.651192,128.645737 75.261505,126.785927 84.371040,132.227814 
	C85.647186,132.990158 86.831734,133.905853 88.289085,134.909195 
	C105.879105,123.288795 125.271370,117.092056 146.585190,116.612320 
	C149.038071,105.280533 151.426315,94.247353 153.880783,82.796234 
M196.178131,177.685883 
	C204.183655,167.615814 200.069244,153.989441 188.403961,151.938919 
	C181.422745,150.711761 174.863937,154.036804 171.953079,160.278824 
	C169.048065,166.508316 170.707840,173.992020 176.133621,178.225815 
	C180.765930,181.840439 189.373932,184.386734 196.178131,177.685883 
M101.155724,168.059952 
	C102.392799,178.265060 114.577919,185.033600 124.469940,178.356949 
	C130.365814,174.377487 132.614120,166.789337 129.894608,160.263000 
	C127.184624,153.759537 120.032021,149.881561 113.245995,151.236481 
	C105.797958,152.723602 101.287582,158.659119 101.155724,168.059952 
M128.856918,206.836670 
	C126.116112,205.269379 123.311584,203.802002 120.652756,202.106155 
	C118.089622,200.471375 115.662003,199.794495 113.801613,202.810562 
	C111.966927,205.784958 114.206345,207.363571 116.328369,208.845734 
	C116.601173,209.036285 116.889023,209.205170 117.166420,209.389328 
	C136.998596,222.556824 166.514221,222.266678 186.147827,208.774338 
	C188.383575,207.237915 190.434860,205.629333 188.593506,202.789429 
	C186.689072,199.852249 184.165710,200.679398 181.659683,202.305862 
	C165.148834,213.021729 147.682022,213.550232 128.856918,206.836670 
z"/>
<path fill="#FF4704" opacity="1.000000" stroke="none" 
	d="
M195.915802,177.945343 
	C189.373932,184.386734 180.765930,181.840439 176.133621,178.225815 
	C170.707840,173.992020 169.048065,166.508316 171.953079,160.278824 
	C174.863937,154.036804 181.422745,150.711761 188.403961,151.938919 
	C200.069244,153.989441 204.183655,167.615814 195.915802,177.945343 
z"/>
<path fill="#FF4806" opacity="1.000000" stroke="none" 
	d="
M101.122795,167.646759 
	C101.287582,158.659119 105.797958,152.723602 113.245995,151.236481 
	C120.032021,149.881561 127.184624,153.759537 129.894608,160.263000 
	C132.614120,166.789337 130.365814,174.377487 124.469940,178.356949 
	C114.577919,185.033600 102.392799,178.265060 101.122795,167.646759 
z"/>
<path fill="#FF4A0A" opacity="1.000000" stroke="none" 
	d="
M129.219376,206.966766 
	C147.682022,213.550232 165.148834,213.021729 181.659683,202.305862 
	C184.165710,200.679398 186.689072,199.852249 188.593506,202.789429 
	C190.434860,205.629333 188.383575,207.237915 186.147827,208.774338 
	C166.514221,222.266678 136.998596,222.556824 117.166420,209.389328 
	C116.889023,209.205170 116.601173,209.036285 116.328369,208.845734 
	C114.206345,207.363571 111.966927,205.784958 113.801613,202.810562 
	C115.662003,199.794495 118.089622,200.471375 120.652756,202.106155 
	C123.311584,203.802002 126.116112,205.269379 129.219376,206.966766 
z"/>
</svg>