<svg version="1.1" id="Layer_1" xmlns="http://www.w3.org/2000/svg" xmlns:xlink="http://www.w3.org/1999/xlink" x="0px" y="0px"
	 width="100%" viewBox="0 0 820 652" enable-background="new 0 0 820 652" xml:space="preserve">
<path fill="#F6F6F6" opacity="1.000000" stroke="none" 
	d="
M497.000000,653.000000 
	C331.333344,653.000000 166.166672,653.000000 1.000000,653.000000 
	C1.000000,435.666656 1.000000,218.333328 1.000000,1.000000 
	C274.333344,1.000000 547.666687,1.000000 821.000000,1.000000 
	C821.000000,218.333328 821.000000,435.666656 821.000000,653.000000 
	C713.166687,653.000000 605.333313,653.000000 497.000000,653.000000 
M236.264084,568.233093 
	C238.438400,569.453613 240.605667,570.686890 242.788071,571.892761 
	C288.428070,597.111450 337.349091,610.763489 389.404449,612.797668 
	C417.743164,613.905090 445.908630,611.870667 473.943115,607.133850 
	C511.885223,600.723022 548.442871,590.185059 582.886292,572.859619 
	C613.674194,557.372925 640.566467,537.066528 660.346924,508.389282 
	C681.895203,477.149139 690.501465,442.061951 689.988098,404.524078 
	C689.906555,398.562683 691.228210,395.382874 697.082153,392.489563 
	C720.235535,381.045959 732.919250,362.547821 730.858582,335.991241 
	C729.243835,315.181427 722.400757,296.007294 709.486145,279.414856 
	C702.090210,269.912720 692.125977,263.480713 680.303040,261.474854 
	C659.417358,257.931366 639.106995,259.104156 621.397156,272.869476 
	C619.168335,274.601898 616.612427,275.945007 614.528076,277.823578 
	C612.024902,280.079620 610.358093,279.435150 607.718750,277.675049 
	C597.631531,270.948090 587.653992,263.884033 576.918518,258.332275 
	C534.471741,236.381302 488.427917,227.090393 441.533661,221.075516 
	C437.019196,220.496460 432.504059,219.922623 427.814026,219.324005 
	C428.422302,216.049774 428.798401,213.595520 429.339111,211.178085 
	C439.203674,167.073639 449.116425,122.979935 458.911621,78.860107 
	C459.654358,75.514557 460.973328,74.541954 464.379669,75.249092 
	C493.847168,81.366364 523.317200,87.478996 552.853760,93.248955 
	C558.254028,94.303902 561.698975,96.031982 561.872192,102.017906 
	C561.928711,103.970749 562.624695,105.933846 563.205261,107.838272 
	C568.211121,124.260300 576.760864,137.913086 594.452576,142.445770 
	C609.124573,146.204788 623.881409,144.912643 637.984558,139.018600 
	C648.654297,134.559494 655.740784,126.514412 658.610229,115.436974 
	C662.594666,100.055016 661.268494,84.822472 655.982117,69.802643 
	C643.754272,35.060997 600.256226,34.098003 581.589355,53.622902 
	C577.356689,58.050114 572.652039,62.144482 567.655029,65.669830 
	C565.342468,67.301353 561.665649,68.133118 558.850220,67.710258 
	C549.497009,66.305504 540.255737,64.158455 530.968567,62.311069 
	C503.748077,56.896454 476.540771,51.413750 449.295441,46.127087 
	C441.626892,44.639080 439.830994,45.203178 437.118652,52.602489 
	C433.185120,63.333344 429.575256,74.306656 427.220062,85.470375 
	C418.022675,129.066315 409.340790,172.771378 400.585266,216.459518 
	C399.916229,219.797836 398.779388,221.064545 395.128937,221.110352 
	C366.839142,221.465347 339.238037,226.361664 312.047607,234.007294 
	C281.098663,242.709778 252.113144,256.016968 224.311447,271.859131 
	C215.809875,276.703552 209.983673,277.219055 201.409882,270.918152 
	C183.962997,258.096436 163.567932,252.999054 142.897003,261.690125 
	C116.273041,272.884155 98.058670,292.935974 92.060661,321.673553 
	C88.046257,340.907288 92.875397,358.642548 107.713715,372.767151 
	C115.425163,380.107697 123.021187,387.577026 130.438721,395.212250 
	C131.856247,396.671356 132.840485,399.157776 132.905884,401.205933 
	C133.075531,406.519287 132.375214,411.856293 132.456436,417.177246 
	C133.057526,456.554382 147.518570,490.321716 173.880219,519.289978 
	C191.762421,538.940369 212.846283,554.472717 236.264084,568.233093 
z"/>
<path fill="#FE4502" opacity="1.000000" stroke="none" 
	d="
M235.950897,568.044922 
	C212.846283,554.472717 191.762421,538.940369 173.880219,519.289978 
	C147.518570,490.321716 133.057526,456.554382 132.456436,417.177246 
	C132.375214,411.856293 133.075531,406.519287 132.905884,401.205933 
	C132.840485,399.157776 131.856247,396.671356 130.438721,395.212250 
	C123.021187,387.577026 115.425163,380.107697 107.713715,372.767151 
	C92.875397,358.642548 88.046257,340.907288 92.060661,321.673553 
	C98.058670,292.935974 116.273041,272.884155 142.897003,261.690125 
	C163.567932,252.999054 183.962997,258.096436 201.409882,270.918152 
	C209.983673,277.219055 215.809875,276.703552 224.311447,271.859131 
	C252.113144,256.016968 281.098663,242.709778 312.047607,234.007294 
	C339.238037,226.361664 366.839142,221.465347 395.128937,221.110352 
	C398.779388,221.064545 399.916229,219.797836 400.585266,216.459518 
	C409.340790,172.771378 418.022675,129.066315 427.220062,85.470375 
	C429.575256,74.306656 433.185120,63.333344 437.118652,52.602489 
	C439.830994,45.203178 441.626892,44.639080 449.295441,46.127087 
	C476.540771,51.413750 503.748077,56.896454 530.968567,62.311069 
	C540.255737,64.158455 549.497009,66.305504 558.850220,67.710258 
	C561.665649,68.133118 565.342468,67.301353 567.655029,65.669830 
	C572.652039,62.144482 577.356689,58.050114 581.589355,53.622902 
	C600.256226,34.098003 643.754272,35.060997 655.982117,69.802643 
	C661.268494,84.822472 662.594666,100.055016 658.610229,115.436974 
	C655.740784,126.514412 648.654297,134.559494 637.984558,139.018600 
	C623.881409,144.912643 609.124573,146.204788 594.452576,142.445770 
	C576.760864,137.913086 568.211121,124.260300 563.205261,107.838272 
	C562.624695,105.933846 561.928711,103.970749 561.872192,102.017906 
	C561.698975,96.031982 558.254028,94.303902 552.853760,93.248955 
	C523.317200,87.478996 493.847168,81.366364 464.379669,75.249092 
	C460.973328,74.541954 459.654358,75.514557 458.911621,78.860107 
	C449.116425,122.979935 439.203674,167.073639 429.339111,211.178085 
	C428.798401,213.595520 428.422302,216.049774 427.814026,219.324005 
	C432.504059,219.922623 437.019196,220.496460 441.533661,221.075516 
	C488.427917,227.090393 534.471741,236.381302 576.918518,258.332275 
	C587.653992,263.884033 597.631531,270.948090 607.718750,277.675049 
	C610.358093,279.435150 612.024902,280.079620 614.528076,277.823578 
	C616.612427,275.945007 619.168335,274.601898 621.397156,272.869476 
	C639.106995,259.104156 659.417358,257.931366 680.303040,261.474854 
	C692.125977,263.480713 702.090210,269.912720 709.486145,279.414856 
	C722.400757,296.007294 729.243835,315.181427 730.858582,335.991241 
	C732.919250,362.547821 720.235535,381.045959 697.082153,392.489563 
	C691.228210,395.382874 689.906555,398.562683 689.988098,404.524078 
	C690.501465,442.061951 681.895203,477.149139 660.346924,508.389282 
	C640.566467,537.066528 613.674194,557.372925 582.886292,572.859619 
	C548.442871,590.185059 511.885223,600.723022 473.943115,607.133850 
	C445.908630,611.870667 417.743164,613.905090 389.404449,612.797668 
	C337.349091,610.763489 288.428070,597.111450 242.788071,571.892761 
	C240.605667,570.686890 238.438400,569.453613 235.950897,568.044922 
M350.916107,398.023834 
	C350.959991,389.251495 352.004395,380.343750 350.839417,371.734985 
	C348.419312,353.851715 338.993286,340.709259 321.042419,335.465179 
	C303.613190,330.373444 286.378815,332.035095 269.932281,339.587067 
	C258.441376,344.863495 252.029144,354.212677 250.964233,366.884674 
	C249.952057,378.929108 252.692657,390.447998 257.288818,401.418884 
	C265.249146,420.419983 279.823608,430.391418 299.273865,428.737701 
	C309.376221,427.878723 319.507690,424.931458 329.131805,421.529419 
	C339.783447,417.764130 347.202423,409.902893 350.916107,398.023834 
M564.172180,360.447754 
	C561.382935,355.957703 559.272827,350.813354 555.686584,347.091217 
	C540.404053,331.229675 521.594727,329.883392 501.776215,335.860626 
	C482.021179,341.818756 473.586548,356.738098 471.956879,376.297150 
	C470.931366,388.604858 472.770538,400.332520 481.167603,409.985962 
	C501.429779,433.279846 524.493408,435.280182 550.097168,421.844421 
	C561.412964,415.906372 567.624695,406.248291 568.520996,393.500336 
	C569.294800,382.495422 568.860718,371.554504 564.172180,360.447754 
M356.217682,543.225525 
	C357.172729,543.513855 358.118195,543.840088 359.084290,544.085083 
	C396.931152,553.682495 434.604523,552.712219 471.985687,541.756714 
	C489.250000,536.697021 506.531921,531.162170 520.559998,519.337280 
	C525.443481,515.220703 529.311157,509.398865 532.277893,503.651337 
	C535.160156,498.067535 532.604248,495.092102 526.243408,496.053009 
	C521.209412,496.813507 516.128723,498.254211 511.465820,500.298523 
	C496.861755,506.701233 482.679962,514.113647 467.906250,520.073242 
	C439.727570,531.440247 410.527069,535.509766 380.335236,529.942383 
	C352.989807,524.899841 329.154388,512.466614 307.954102,494.894745 
	C302.980408,490.772308 299.660004,493.701660 295.956238,495.740356 
	C292.169037,497.824890 290.447968,501.527588 292.449951,505.507202 
	C294.272278,509.129730 296.694366,512.729980 299.667999,515.447266 
	C315.563599,529.972412 334.946533,537.672119 356.217682,543.225525 
z"/>
<path fill="#F7F5F4" opacity="1.000000" stroke="none" 
	d="
M350.794983,398.417023 
	C347.202423,409.902893 339.783447,417.764130 329.131805,421.529419 
	C319.507690,424.931458 309.376221,427.878723 299.273865,428.737701 
	C279.823608,430.391418 265.249146,420.419983 257.288818,401.418884 
	C252.692657,390.447998 249.952057,378.929108 250.964233,366.884674 
	C252.029144,354.212677 258.441376,344.863495 269.932281,339.587067 
	C286.378815,332.035095 303.613190,330.373444 321.042419,335.465179 
	C338.993286,340.709259 348.419312,353.851715 350.839417,371.734985 
	C352.004395,380.343750 350.959991,389.251495 350.794983,398.417023 
z"/>
<path fill="#F7F5F3" opacity="1.000000" stroke="none" 
	d="
M564.335144,360.797516 
	C568.860718,371.554504 569.294800,382.495422 568.520996,393.500336 
	C567.624695,406.248291 561.412964,415.906372 550.097168,421.844421 
	C524.493408,435.280182 501.429779,433.279846 481.167603,409.985962 
	C472.770538,400.332520 470.931366,388.604858 471.956879,376.297150 
	C473.586548,356.738098 482.021179,341.818756 501.776215,335.860626 
	C521.594727,329.883392 540.404053,331.229675 555.686584,347.091217 
	C559.272827,350.813354 561.382935,355.957703 564.335144,360.797516 
z"/>
<path fill="#F8F2EF" opacity="1.000000" stroke="none" 
	d="
M355.815491,543.159912 
	C334.946533,537.672119 315.563599,529.972412 299.667999,515.447266 
	C296.694366,512.729980 294.272278,509.129730 292.449951,505.507202 
	C290.447968,501.527588 292.169037,497.824890 295.956238,495.740356 
	C299.660004,493.701660 302.980408,490.772308 307.954102,494.894745 
	C329.154388,512.466614 352.989807,524.899841 380.335236,529.942383 
	C410.527069,535.509766 439.727570,531.440247 467.906250,520.073242 
	C482.679962,514.113647 496.861755,506.701233 511.465820,500.298523 
	C516.128723,498.254211 521.209412,496.813507 526.243408,496.053009 
	C532.604248,495.092102 535.160156,498.067535 532.277893,503.651337 
	C529.311157,509.398865 525.443481,515.220703 520.559998,519.337280 
	C506.531921,531.162170 489.250000,536.697021 471.985687,541.756714 
	C434.604523,552.712219 396.931152,553.682495 359.084290,544.085083 
	C358.118195,543.840088 357.172729,543.513855 355.815491,543.159912 
z"/>
</svg>