<?xml version="1.0" standalone="no"?>
<!DOCTYPE svg PUBLIC "-//W3C//DTD SVG 20010904//EN"
 "http://www.w3.org/TR/2001/REC-SVG-20010904/DTD/svg10.dtd">
<svg version="1.0" xmlns="http://www.w3.org/2000/svg"
 width="512.000000pt" height="512.000000pt" viewBox="0 0 512.000000 512.000000"
 preserveAspectRatio="xMidYMid meet">

<g transform="translate(0.000000,512.000000) scale(0.100000,-0.100000)"
fill="#FFFFFF" stroke="none">
<path d="M2321 5110 c-1340 -130 -2361 -1283 -2318 -2620 13 -389 97 -726 268
-1069 249 -502 647 -900 1150 -1150 815 -406 1779 -350 2539 147 297 194 579
482 771 788 74 116 184 342 234 478 51 138 110 376 131 531 23 157 26 521 6
660 -59 415 -191 769 -410 1099 -92 140 -185 254 -315 385 -399 403 -895 653
-1462 737 -122 18 -466 26 -594 14z m972 -1398 c126 130 348 56 365 -121 18
-192 -196 -310 -342 -189 -41 34 -76 95 -76 133 0 17 -7 28 -22 34 -47 17
-449 103 -455 97 -4 -3 -37 -147 -75 -319 -37 -171 -70 -322 -73 -334 -5 -21
-2 -23 42 -23 175 0 457 -85 628 -189 68 -41 68 -41 89 -22 47 43 108 65 181
65 84 0 144 -24 200 -79 58 -59 80 -115 80 -210 0 -70 -4 -87 -30 -134 -18
-32 -49 -69 -76 -89 -45 -33 -46 -36 -38 -71 33 -140 -18 -335 -125 -485 -211
-296 -682 -479 -1125 -436 -340 32 -609 147 -802 343 -147 149 -215 317 -207
514 l5 101 -46 34 c-27 20 -59 57 -76 89 -26 47 -30 64 -30 134 0 95 22 151
80 210 54 54 116 79 195 79 69 0 145 -27 186 -65 l21 -20 107 60 c169 93 435
171 588 171 26 0 48 3 48 8 0 10 148 688 161 735 6 24 18 41 31 46 13 5 113
-13 284 -52 l264 -59 43 44z"/>
<path d="M2019 2475 c-80 -26 -149 -120 -149 -205 0 -46 21 -100 52 -136 94
-107 262 -100 343 15 27 39 30 50 30 120 0 68 -3 83 -27 119 -53 79 -158 116
-249 87z"/>
<path d="M2968 2476 c-57 -21 -85 -42 -115 -87 -55 -84 -39 -207 38 -272 149
-128 363 -18 347 178 -11 130 -152 225 -270 181z"/>
<path d="M2103 1839 c-37 -13 -40 -55 -8 -89 158 -165 647 -186 877 -39 82 53
99 105 42 131 -21 10 -29 8 -52 -11 -45 -37 -145 -81 -218 -96 -89 -19 -283
-19 -371 -1 -79 17 -150 46 -196 79 -46 34 -50 36 -74 26z"/>
</g>
</svg>
