<?xml version="1.0" standalone="no"?>
<!DOCTYPE svg PUBLIC "-//W3C//DTD SVG 20010904//EN"
 "http://www.w3.org/TR/2001/REC-SVG-20010904/DTD/svg10.dtd">
<svg version="1.0" xmlns="http://www.w3.org/2000/svg"
 width="512.000000pt" height="512.000000pt" viewBox="0 0 512.000000 512.000000"
 preserveAspectRatio="xMidYMid meet">

<g transform="translate(0.000000,512.000000) scale(0.100000,-0.100000)"
fill="#000000" stroke="none">
<path d="M78 5099 c-23 -12 -46 -35 -58 -59 -20 -39 -20 -54 -20 -2480 0
-2427 0 -2441 20 -2480 13 -26 34 -47 60 -60 39 -20 53 -20 2480 -20 2427 0
2441 0 2480 20 26 13 47 34 60 60 20 39 20 53 20 2480 0 2427 0 2441 -20 2480
-13 26 -34 47 -60 60 -39 20 -53 20 -2482 20 -2413 -1 -2443 -1 -2480 -21z
m3248 -625 c50 -24 71 -67 88 -179 28 -186 82 -308 181 -410 102 -105 249
-177 475 -231 63 -15 128 -37 144 -47 53 -37 56 -56 56 -414 0 -366 -2 -375
-69 -420 -28 -19 -48 -23 -107 -23 -152 0 -399 43 -577 100 -52 16 -97 30
-100 30 -3 0 -8 -260 -10 -577 l-3 -578 -26 -105 c-111 -453 -413 -780 -848
-918 -490 -156 -926 -54 -1281 298 -354 351 -483 835 -343 1282 121 386 447
723 821 848 109 36 275 63 355 58 67 -5 121 -40 137 -90 6 -19 11 -175 13
-373 3 -312 2 -343 -15 -373 -23 -41 -68 -70 -127 -78 -124 -18 -235 -96 -287
-201 -38 -80 -44 -203 -13 -286 30 -80 111 -165 192 -203 55 -25 74 -29 153
-29 77 1 99 5 151 29 77 34 144 103 181 181 l28 60 5 1280 c5 1257 5 1281 25
1314 41 70 50 71 428 71 291 0 344 -2 373 -16z"/>
<path d="M2800 3025 c0 -1315 4 -1250 -76 -1413 -63 -129 -156 -222 -286 -287
-203 -100 -403 -100 -606 0 -155 77 -280 221 -334 385 -30 91 -36 270 -13 360
51 200 196 372 375 447 36 14 69 30 74 34 5 4 5 77 1 164 l-7 157 -37 -7 c-66
-12 -200 -73 -286 -129 -165 -111 -320 -298 -385 -468 -58 -149 -65 -190 -64
-353 1 -133 4 -160 28 -239 90 -298 279 -527 541 -656 126 -62 193 -80 326
-87 285 -16 594 100 785 293 113 115 191 252 241 427 l27 92 5 715 c7 795 3
757 74 800 44 27 122 27 162 -1 61 -41 183 -97 277 -128 83 -26 293 -71 335
-71 10 0 13 33 13 154 l0 154 -72 21 c-352 104 -564 269 -689 536 -23 48 -51
127 -63 176 l-21 89 -162 0 -163 0 0 -1165z"/>
</g>
</svg>
