<svg version="1.1" id="Layer_1" xmlns="http://www.w3.org/2000/svg" xmlns:xlink="http://www.w3.org/1999/xlink" x="0px" y="0px"
	 width="100%" viewBox="0 0 400 400" enable-background="new 0 0 400 400" xml:space="preserve">
<path fill="#000000" opacity="1.000000" stroke="none" 
	d="
M274.000000,401.000000 
	C182.695053,401.000000 91.890091,401.000000 1.042571,401.000000 
	C1.042571,267.736725 1.042571,134.473419 1.042571,1.105061 
	C134.221558,1.105061 267.443207,1.105061 400.832458,1.105061 
	C400.832458,134.333160 400.832458,267.666565 400.832458,401.000000 
	C358.806824,401.000000 316.653412,401.000000 274.000000,401.000000 
M107.080627,342.526245 
	C107.457321,342.615356 107.834015,342.704468 108.007599,342.870697 
	C108.007599,342.870697 108.190918,342.754089 108.067535,343.458405 
	C135.880905,372.425232 187.409821,379.624969 223.687561,359.270844 
	C259.460754,339.199890 277.383270,308.314514 277.684113,267.392853 
	C277.933777,233.427704 277.735199,199.459274 277.735199,165.492294 
	C277.735199,163.729446 277.735199,161.966599 277.735199,159.133820 
	C301.213287,174.918198 325.959656,183.430130 353.609711,183.215195 
	C353.609711,164.700043 353.609711,146.947723 353.609711,128.947205 
	C348.315369,128.322510 343.221771,127.721497 337.944489,126.903854 
	C337.944489,126.903854 337.726990,126.721275 337.912689,125.858345 
	C337.912689,122.257225 337.912689,118.656097 337.912689,114.975342 
	C333.204437,114.433464 328.773773,114.505775 324.701599,113.333130 
	C316.338379,110.924797 308.167084,107.849815 299.979126,105.007851 
	C299.979126,105.007851 299.971527,105.082268 299.836182,104.448334 
	C299.241852,104.237190 298.647522,104.026039 298.057404,103.943451 
	C298.057404,103.943451 298.182800,103.914711 298.102631,103.486404 
	C297.907043,103.213387 297.651184,103.132950 296.884979,102.744591 
	C296.201477,102.179611 295.518005,101.614632 294.754547,100.533989 
	C294.464691,100.368080 294.174835,100.202179 293.964783,100.049644 
	C293.964783,100.049644 293.934967,100.124863 293.940674,99.514084 
	C293.606262,99.352036 293.271881,99.189987 292.999664,99.007805 
	C292.999664,99.007805 292.968018,99.065018 293.015381,98.352310 
	C283.040405,84.727943 277.915344,69.410042 277.631653,52.614902 
	C272.420105,52.614902 267.798462,52.614902 263.032074,52.305054 
	C263.032074,52.305054 262.815674,52.040215 262.865845,51.206696 
	C262.395599,47.123283 261.925385,43.039871 261.442291,38.844734 
	C243.264832,38.844734 225.240540,38.844734 206.999771,38.844734 
	C206.999771,41.031559 207.000290,42.855423 206.999680,44.679291 
	C206.976089,115.264275 206.974609,185.849274 206.915390,256.434235 
	C206.897247,278.060974 191.740585,296.532745 170.612732,301.193665 
	C160.281235,303.472809 150.499100,301.534058 140.487061,297.701538 
	C139.846039,297.129517 139.205002,296.557495 138.280640,295.278442 
	C137.868393,295.153778 137.456146,295.029083 137.076691,294.974609 
	C137.076691,294.974609 137.134567,294.923096 137.500580,294.216278 
	C136.911163,293.024750 136.323517,291.832336 135.732040,290.641815 
	C123.270889,265.559814 135.754395,235.332520 162.302475,226.364258 
	C171.510651,223.253647 180.841629,223.255386 190.124847,226.013107 
	C190.124847,207.082047 190.124847,188.703262 190.124847,170.075287 
	C184.730804,169.712616 179.760834,169.378464 174.572952,168.140320 
	C174.572952,164.219193 174.572952,160.298080 174.572952,156.315323 
	C164.782379,156.315323 155.659790,155.186295 146.901001,156.493927 
	C76.857857,166.950958 39.260338,241.454468 72.304932,304.029572 
	C78.791634,316.313171 87.330009,327.101593 99.019150,334.974915 
	C99.019150,334.974915 98.964897,334.974884 99.130089,335.622406 
	C99.518990,335.829712 99.907890,336.037048 100.715134,336.656433 
	C102.400322,338.050476 104.085518,339.444489 106.021446,341.421295 
	C106.379860,341.599884 106.738266,341.778473 107.019302,341.946747 
	C107.019302,341.946747 107.053467,341.876526 107.080627,342.526245 
z"/>
<path fill="#FEFEFE" opacity="1.000000" stroke="none" 
	d="
M105.770721,340.838501 
	C104.085518,339.444489 102.400322,338.050476 100.443329,336.092682 
	C99.769310,335.344238 99.367111,335.159546 98.964905,334.974854 
	C98.964897,334.974884 99.019150,334.974915 99.068253,334.644470 
	C98.276443,333.086945 97.475021,331.830566 96.588867,330.637054 
	C70.177734,295.066406 68.970711,248.921844 94.361122,212.746597 
	C113.619186,185.308472 140.356293,170.730118 174.240356,170.051880 
	C174.360428,184.210999 174.360428,197.962936 174.360428,212.014664 
	C172.825989,211.668259 172.030518,211.473618 171.228729,211.309845 
	C137.496658,204.420013 108.618744,233.033356 116.097137,266.256561 
	C118.888611,278.657806 125.234497,288.956909 137.134567,294.923096 
	C137.134567,294.923096 137.076691,294.974609 137.155914,295.283997 
	C137.678101,295.724060 138.121033,295.854767 138.563965,295.985474 
	C139.205002,296.557495 139.846039,297.129517 140.735443,298.237244 
	C149.534119,309.250336 160.550369,315.335266 174.040237,315.939667 
	C201.824387,317.184418 222.917892,296.745758 222.929398,268.917145 
	C222.958374,198.818771 222.939011,128.720383 222.939041,58.621998 
	C222.939041,56.675220 222.939056,54.728443 222.939056,52.040215 
	C236.606430,52.040215 249.711044,52.040215 262.815674,52.040215 
	C262.815674,52.040215 263.032074,52.305054 263.041077,52.809952 
	C265.915710,67.436119 272.289795,79.825958 282.063690,90.327049 
	C285.203461,93.700432 289.305969,96.177757 292.968018,99.065018 
	C292.968018,99.065018 292.999664,99.007805 292.903778,99.334053 
	C293.183594,99.815155 293.559265,99.970009 293.934967,100.124863 
	C293.934967,100.124863 293.964783,100.049644 293.907104,100.324341 
	C294.177795,100.749245 294.506134,100.899445 294.834503,101.049652 
	C295.518005,101.614632 296.201477,102.179611 297.153198,103.195587 
	C297.623505,103.881943 297.877319,103.971321 298.182800,103.914711 
	C298.182800,103.914711 298.057404,103.943451 298.190002,104.194397 
	C298.872253,104.657646 299.421906,104.869957 299.971527,105.082275 
	C299.971527,105.082268 299.979126,105.007851 299.827698,105.373489 
	C310.190552,116.667175 322.795837,123.803177 337.726990,126.721275 
	C337.726990,126.721275 337.944489,126.903854 337.954590,127.465500 
	C337.964722,141.648727 337.964722,155.270309 337.964722,169.282181 
	C309.824829,169.552414 285.046112,160.889435 261.726074,145.191254 
	C261.726074,148.122421 261.726074,149.942139 261.726074,151.761871 
	C261.726074,182.256180 261.755524,212.750549 261.703857,243.244781 
	C261.692017,250.235031 261.744568,257.252441 261.184937,264.210541 
	C256.084045,327.630280 195.134109,370.275665 133.884247,353.063232 
	C125.051659,350.581055 116.742386,346.236664 108.190918,342.754089 
	C108.190918,342.754089 108.007599,342.870697 108.127609,342.508667 
	C107.849564,342.056610 107.451515,341.966553 107.053467,341.876526 
	C107.053467,341.876526 107.019302,341.946747 107.024933,341.615906 
	C106.610619,341.136230 106.190666,340.987366 105.770721,340.838501 
z"/>
<path fill="#FA2C55" opacity="1.000000" stroke="none" 
	d="
M108.129227,343.106232 
	C116.742386,346.236664 125.051659,350.581055 133.884247,353.063232 
	C195.134109,370.275665 256.084045,327.630280 261.184937,264.210541 
	C261.744568,257.252441 261.692017,250.235031 261.703857,243.244781 
	C261.755524,212.750549 261.726074,182.256180 261.726074,151.761871 
	C261.726074,149.942139 261.726074,148.122421 261.726074,145.191254 
	C285.046112,160.889435 309.824829,169.552414 337.964722,169.282181 
	C337.964722,155.270309 337.964722,141.648727 338.046448,127.573822 
	C343.221771,127.721497 348.315369,128.322510 353.609711,128.947205 
	C353.609711,146.947723 353.609711,164.700043 353.609711,183.215195 
	C325.959656,183.430130 301.213287,174.918198 277.735199,159.133820 
	C277.735199,161.966599 277.735199,163.729446 277.735199,165.492294 
	C277.735199,199.459274 277.933777,233.427704 277.684113,267.392853 
	C277.383270,308.314514 259.460754,339.199890 223.687561,359.270844 
	C187.409821,379.624969 135.880905,372.425232 108.129227,343.106232 
z"/>
<path fill="#27F3EE" opacity="1.000000" stroke="none" 
	d="
M262.840759,51.623455 
	C249.711044,52.040215 236.606430,52.040215 222.939056,52.040215 
	C222.939056,54.728443 222.939041,56.675220 222.939041,58.621998 
	C222.939011,128.720383 222.958374,198.818771 222.929398,268.917145 
	C222.917892,296.745758 201.824387,317.184418 174.040237,315.939667 
	C160.550369,315.335266 149.534119,309.250336 140.900665,298.437561 
	C150.499100,301.534058 160.281235,303.472809 170.612732,301.193665 
	C191.740585,296.532745 206.897247,278.060974 206.915390,256.434235 
	C206.974609,185.849274 206.976089,115.264275 206.999680,44.679291 
	C207.000290,42.855423 206.999771,41.031559 206.999771,38.844734 
	C225.240540,38.844734 243.264832,38.844734 261.442291,38.844734 
	C261.925385,43.039871 262.395599,47.123283 262.840759,51.623455 
z"/>
<path fill="#26F1EC" opacity="1.000000" stroke="none" 
	d="
M174.120285,169.644699 
	C140.356293,170.730118 113.619186,185.308472 94.361122,212.746597 
	C68.970711,248.921844 70.177734,295.066406 96.588867,330.637054 
	C97.475021,331.830566 98.276443,333.086945 99.072227,334.671326 
	C87.330009,327.101593 78.791634,316.313171 72.304932,304.029572 
	C39.260338,241.454468 76.857857,166.950958 146.901001,156.493927 
	C155.659790,155.186295 164.782379,156.315323 174.572952,156.315323 
	C174.572952,160.298080 174.572952,164.219193 174.502106,168.728851 
	C174.431274,169.317398 174.120285,169.644699 174.120285,169.644699 
z"/>
<path fill="#FD2F57" opacity="1.000000" stroke="none" 
	d="
M174.240356,170.051880 
	C174.120285,169.644699 174.431274,169.317398 174.611069,169.180847 
	C179.760834,169.378464 184.730804,169.712616 190.124847,170.075287 
	C190.124847,188.703262 190.124847,207.082047 190.124847,226.013107 
	C180.841629,223.255386 171.510651,223.253647 162.302475,226.364258 
	C135.754395,235.332520 123.270889,265.559814 135.732040,290.641815 
	C136.323517,291.832336 136.911163,293.024750 137.317566,294.569702 
	C125.234497,288.956909 118.888611,278.657806 116.097137,266.256561 
	C108.618744,233.033356 137.496658,204.420013 171.228729,211.309845 
	C172.030518,211.473618 172.825989,211.668259 174.360428,212.014664 
	C174.360428,197.962936 174.360428,184.210999 174.240356,170.051880 
z"/>
<path fill="#F62F56" opacity="1.000000" stroke="none" 
	d="
M292.991699,98.708664 
	C289.305969,96.177757 285.203461,93.700432 282.063690,90.327049 
	C272.289795,79.825958 265.915710,67.436119 263.113464,52.964878 
	C267.798462,52.614902 272.420105,52.614902 277.631653,52.614902 
	C277.915344,69.410042 283.040405,84.727943 292.991699,98.708664 
z"/>
<path fill="#29ECE7" opacity="1.000000" stroke="none" 
	d="
M337.819824,126.289810 
	C322.795837,123.803177 310.190552,116.667175 299.796570,105.394180 
	C308.167084,107.849815 316.338379,110.924797 324.701599,113.333130 
	C328.773773,114.505775 333.204437,114.433464 337.912689,114.975342 
	C337.912689,118.656097 337.912689,122.257225 337.819824,126.289810 
z"/>
<path fill="#29ECE7" opacity="1.000000" stroke="none" 
	d="
M299.903870,104.765305 
	C299.421906,104.869957 298.872253,104.657646 298.187927,104.130112 
	C298.647522,104.026039 299.241852,104.237190 299.903870,104.765305 
z"/>
<path fill="#29ECE7" opacity="1.000000" stroke="none" 
	d="
M298.142700,103.700562 
	C297.877319,103.971321 297.623505,103.881943 297.378235,103.445847 
	C297.651184,103.132950 297.907043,103.213387 298.142700,103.700562 
z"/>
<path fill="#F62F56" opacity="1.000000" stroke="none" 
	d="
M294.794525,100.791824 
	C294.506134,100.899445 294.177795,100.749245 293.867188,100.317657 
	C294.174835,100.202179 294.464691,100.368080 294.794525,100.791824 
z"/>
<path fill="#F62F56" opacity="1.000000" stroke="none" 
	d="
M293.937805,99.819473 
	C293.559265,99.970009 293.183594,99.815155 292.872681,99.344116 
	C293.271881,99.189987 293.606262,99.352036 293.937805,99.819473 
z"/>
<path fill="#FD2F57" opacity="1.000000" stroke="none" 
	d="
M138.422302,295.631958 
	C138.121033,295.854767 137.678101,295.724060 137.139526,295.248901 
	C137.456146,295.029083 137.868393,295.153778 138.422302,295.631958 
z"/>
<path fill="#26F1EC" opacity="1.000000" stroke="none" 
	d="
M99.047501,335.298645 
	C99.367111,335.159546 99.769310,335.344238 100.234161,335.886658 
	C99.907890,336.037048 99.518990,335.829712 99.047501,335.298645 
z"/>
<path fill="#FA2C55" opacity="1.000000" stroke="none" 
	d="
M105.896088,341.129883 
	C106.190666,340.987366 106.610619,341.136230 107.063629,341.621094 
	C106.738266,341.778473 106.379860,341.599884 105.896088,341.129883 
z"/>
<path fill="#FA2C55" opacity="1.000000" stroke="none" 
	d="
M107.067047,342.201385 
	C107.451515,341.966553 107.849564,342.056610 108.229156,342.470093 
	C107.834015,342.704468 107.457321,342.615356 107.067047,342.201385 
z"/>
</svg>