<?xml version="1.0" standalone="no"?>
<!DOCTYPE svg PUBLIC "-//W3C//DTD SVG 20010904//EN"
 "http://www.w3.org/TR/2001/REC-SVG-20010904/DTD/svg10.dtd">
<svg version="1.0" xmlns="http://www.w3.org/2000/svg"
 width="512.000000pt" height="512.000000pt" viewBox="0 0 512.000000 512.000000"
 preserveAspectRatio="xMidYMid meet">

<g transform="translate(0.000000,512.000000) scale(0.100000,-0.100000)"
fill="#FFFFFF" stroke="none">
<path d="M1440 4431 c-193 -36 -356 -160 -439 -333 -45 -96 -61 -161 -61 -258
0 -97 16 -162 62 -260 75 -157 227 -280 398 -321 85 -21 222 -17 305 9 253 77
425 309 425 572 0 268 -171 497 -430 574 -66 20 -198 28 -260 17z"/>
<path d="M3442 3226 c-157 -39 -315 -164 -386 -306 -49 -100 -66 -168 -66
-267 0 -110 14 -172 62 -272 48 -101 149 -208 243 -258 279 -147 612 -65 784
193 62 93 91 182 98 299 17 284 -172 539 -452 610 -71 18 -209 18 -283 1z"/>
<path d="M954 2887 c-51 -20 -101 -59 -128 -101 -14 -21 -90 -234 -170 -473
l-145 -433 181 2 181 3 112 335 112 335 438 0 438 0 54 -160 c29 -88 53 -163
53 -167 0 -5 -160 -8 -355 -8 l-355 0 0 -425 0 -425 -257 -2 -258 -3 0 -170 0
-170 908 -3 c499 -1 907 -3 907 -5 0 -1 -25 -77 -55 -167 -30 -90 -55 -166
-55 -167 0 -2 81 -3 179 -3 l179 0 114 343 115 342 435 3 436 2 114 -342 115
-343 176 -3 c138 -2 177 0 177 10 0 7 -66 211 -146 452 l-147 440 -47 47 c-80
80 -74 79 -675 79 -565 0 -580 -1 -650 -55 l-35 -26 0 295 0 296 -228 0 -227
0 -93 278 c-59 177 -101 289 -118 310 -14 17 -47 44 -72 60 l-47 27 -565 2
c-417 1 -573 -1 -596 -10z"/>
</g>
</svg>
