<svg version="1.1" id="Layer_1" xmlns="http://www.w3.org/2000/svg" xmlns:xlink="http://www.w3.org/1999/xlink" x="0px" y="0px"
	 width="100%" viewBox="0 0 934 768" enable-background="new 0 0 934 768" xml:space="preserve">
<path fill="#000000" opacity="1.000000" stroke="none" 
	d="
M561.000000,769.000000 
	C374.000061,769.000000 187.500107,769.000000 1.000125,769.000000 
	C1.000083,513.000122 1.000083,257.000275 1.000042,1.000297 
	C312.333099,1.000198 623.666199,1.000198 934.999512,1.000099 
	C934.999634,256.999695 934.999634,512.999390 934.999817,768.999512 
	C810.500000,769.000000 686.000000,769.000000 561.000000,769.000000 
M596.495667,673.000916 
	C606.513428,665.706482 616.773315,658.718384 626.487549,651.039917 
	C638.545166,641.509155 650.589417,631.878296 661.830811,621.421265 
	C673.366455,610.690552 684.216431,599.174988 694.827942,587.512817 
	C704.545532,576.833130 714.167236,565.957520 722.708130,554.342407 
	C734.419617,538.415222 745.944702,522.222229 755.952393,505.203888 
	C768.113037,484.524292 779.773804,463.383667 789.502563,441.487946 
	C799.272461,419.499573 806.895203,396.502106 814.506042,373.629791 
	C819.249817,359.373840 822.847412,344.655640 825.832275,329.916656 
	C829.225281,313.162415 831.735535,296.202118 833.930664,279.240936 
	C835.801392,264.785675 837.083557,250.224014 837.872620,235.668564 
	C838.503113,224.036896 838.028931,212.343628 837.972839,200.678055 
	C837.962891,198.605408 837.598938,196.534485 837.402771,194.507370 
	C874.774414,167.171127 906.658752,134.558334 931.888611,95.651718 
	C923.059448,98.540123 914.702087,101.988556 906.181946,104.972298 
	C897.778320,107.915215 889.257568,110.552666 880.700745,113.020821 
	C871.982117,115.535614 863.223877,117.991913 854.359375,119.899673 
	C845.642944,121.775551 836.771362,122.930542 827.967896,124.401871 
	C865.933228,98.075829 892.460876,63.995296 906.987122,19.632563 
	C904.611633,20.746237 903.010254,21.436398 901.463074,22.231876 
	C888.894470,28.694067 876.657410,35.923782 863.704773,41.489555 
	C839.877319,51.728237 815.292297,59.881844 789.803650,65.149963 
	C786.833984,65.763741 785.043335,65.730835 782.950073,63.536522 
	C765.793335,45.551620 745.665161,31.933905 722.905396,21.887890 
	C700.809998,12.135125 677.651794,7.295570 653.753784,6.193356 
	C643.285095,5.710524 632.703979,7.142405 622.201477,8.030820 
	C604.221558,9.551754 587.090881,14.612761 570.669067,21.835274 
	C541.239258,34.778877 516.264771,53.636734 496.391296,79.083603 
	C483.989075,94.963875 474.134827,112.269974 467.416229,131.245392 
	C461.916077,146.779556 458.216064,162.712570 456.839813,179.264221 
	C455.615326,193.990540 455.613098,208.552277 457.929352,223.134567 
	C458.740387,228.240494 459.321869,233.382874 460.178833,239.783203 
	C301.274780,228.226883 171.274292,161.826263 68.884819,40.501877 
	C44.615734,84.410011 36.932243,130.232391 47.919399,178.942856 
	C58.886574,227.564743 85.382324,265.706726 125.782455,294.459473 
	C95.620308,293.457458 67.811790,284.690033 40.983006,271.323792 
	C46.428608,369.559937 95.845230,432.847839 190.314026,461.356262 
	C176.861237,463.222839 163.268402,465.415009 149.627197,465.775269 
	C135.826248,466.139740 121.977386,464.690979 108.260277,464.041718 
	C129.960815,532.868469 193.658600,591.431274 284.138672,596.502747 
	C200.737778,659.056213 107.750366,684.769836 4.412320,674.489929 
	C18.253887,683.131592 31.910690,691.630249 46.200558,698.881348 
	C61.987232,706.892090 78.004288,714.692871 94.554390,720.894836 
	C116.511497,729.122986 138.890747,736.384033 161.441742,742.824036 
	C184.935349,749.533142 208.978851,754.054199 233.415787,756.020203 
	C249.967941,757.351868 266.506866,758.905823 283.079132,759.905884 
	C291.879791,760.436951 300.741425,760.132446 309.570923,759.964355 
	C319.168274,759.781738 328.788544,759.667358 338.347473,758.890991 
	C350.093597,757.936890 361.799805,756.434082 373.498505,754.970581 
	C383.536072,753.714905 393.655609,752.733276 403.530640,750.645447 
	C419.870972,747.190735 436.096252,743.147705 452.275360,738.984802 
	C479.166931,732.065369 504.964142,722.026855 530.112061,710.377319 
	C552.986145,699.781067 574.893372,687.374573 596.495667,673.000916 
z"/>
<path fill="#1D9BF0" opacity="1.000000" stroke="none" 
	d="
M596.228027,673.254883 
	C574.893372,687.374573 552.986145,699.781067 530.112061,710.377319 
	C504.964142,722.026855 479.166931,732.065369 452.275360,738.984802 
	C436.096252,743.147705 419.870972,747.190735 403.530640,750.645447 
	C393.655609,752.733276 383.536072,753.714905 373.498505,754.970581 
	C361.799805,756.434082 350.093597,757.936890 338.347473,758.890991 
	C328.788544,759.667358 319.168274,759.781738 309.570923,759.964355 
	C300.741425,760.132446 291.879791,760.436951 283.079132,759.905884 
	C266.506866,758.905823 249.967941,757.351868 233.415787,756.020203 
	C208.978851,754.054199 184.935349,749.533142 161.441742,742.824036 
	C138.890747,736.384033 116.511497,729.122986 94.554390,720.894836 
	C78.004288,714.692871 61.987232,706.892090 46.200558,698.881348 
	C31.910690,691.630249 18.253887,683.131592 4.412320,674.489929 
	C107.750366,684.769836 200.737778,659.056213 284.138672,596.502747 
	C193.658600,591.431274 129.960815,532.868469 108.260277,464.041718 
	C121.977386,464.690979 135.826248,466.139740 149.627197,465.775269 
	C163.268402,465.415009 176.861237,463.222839 190.314026,461.356262 
	C95.845230,432.847839 46.428608,369.559937 40.983006,271.323792 
	C67.811790,284.690033 95.620308,293.457458 125.782455,294.459473 
	C85.382324,265.706726 58.886574,227.564743 47.919399,178.942856 
	C36.932243,130.232391 44.615734,84.410011 68.884819,40.501877 
	C171.274292,161.826263 301.274780,228.226883 460.178833,239.783203 
	C459.321869,233.382874 458.740387,228.240494 457.929352,223.134567 
	C455.613098,208.552277 455.615326,193.990540 456.839813,179.264221 
	C458.216064,162.712570 461.916077,146.779556 467.416229,131.245392 
	C474.134827,112.269974 483.989075,94.963875 496.391296,79.083603 
	C516.264771,53.636734 541.239258,34.778877 570.669067,21.835274 
	C587.090881,14.612761 604.221558,9.551754 622.201477,8.030820 
	C632.703979,7.142405 643.285095,5.710524 653.753784,6.193356 
	C677.651794,7.295570 700.809998,12.135125 722.905396,21.887890 
	C745.665161,31.933905 765.793335,45.551620 782.950073,63.536522 
	C785.043335,65.730835 786.833984,65.763741 789.803650,65.149963 
	C815.292297,59.881844 839.877319,51.728237 863.704773,41.489555 
	C876.657410,35.923782 888.894470,28.694067 901.463074,22.231876 
	C903.010254,21.436398 904.611633,20.746237 906.987122,19.632563 
	C892.460876,63.995296 865.933228,98.075829 827.967896,124.401871 
	C836.771362,122.930542 845.642944,121.775551 854.359375,119.899673 
	C863.223877,117.991913 871.982117,115.535614 880.700745,113.020821 
	C889.257568,110.552666 897.778320,107.915215 906.181946,104.972298 
	C914.702087,101.988556 923.059448,98.540123 931.888611,95.651718 
	C906.658752,134.558334 874.774414,167.171127 837.402771,194.507370 
	C837.598938,196.534485 837.962891,198.605408 837.972839,200.678055 
	C838.028931,212.343628 838.503113,224.036896 837.872620,235.668564 
	C837.083557,250.224014 835.801392,264.785675 833.930664,279.240936 
	C831.735535,296.202118 829.225281,313.162415 825.832275,329.916656 
	C822.847412,344.655640 819.249817,359.373840 814.506042,373.629791 
	C806.895203,396.502106 799.272461,419.499573 789.502563,441.487946 
	C779.773804,463.383667 768.113037,484.524292 755.952393,505.203888 
	C745.944702,522.222229 734.419617,538.415222 722.708130,554.342407 
	C714.167236,565.957520 704.545532,576.833130 694.827942,587.512817 
	C684.216431,599.174988 673.366455,610.690552 661.830811,621.421265 
	C650.589417,631.878296 638.545166,641.509155 626.487549,651.039917 
	C616.773315,658.718384 606.513428,665.706482 596.228027,673.254883 
z"/>
</svg>