<svg version="1.1" id="Layer_1" xmlns="http://www.w3.org/2000/svg" xmlns:xlink="http://www.w3.org/1999/xlink" x="0px" y="0px"
	 width="100%" viewBox="0 0 512 512" enable-background="new 0 0 512 512" xml:space="preserve">
<path fill="#50ABF1" opacity="1.000000" stroke="none" 
	d="
M323.000000,513.000000 
	C215.359482,513.000000 108.218956,513.000000 1.039217,513.000000 
	C1.039217,342.401123 1.039217,171.802231 1.039217,1.101671 
	C171.557190,1.101671 342.114471,1.101671 512.835876,1.101671 
	C512.835876,171.666534 512.835876,342.333252 512.835876,513.000000 
	C449.802216,513.000000 386.651093,513.000000 323.000000,513.000000 
M443.286041,146.839218 
	C438.854248,148.254379 434.445251,149.746902 429.984222,151.062958 
	C425.514893,152.381439 421.030121,153.688400 416.484619,154.695969 
	C412.132507,155.660645 407.693665,156.234116 402.166931,157.170258 
	C425.947571,135.778336 433.946594,125.164993 434.110199,114.848419 
	C432.477386,115.575058 431.014618,116.298988 429.499664,116.888771 
	C416.482574,121.956406 403.432312,126.940041 390.449707,132.094299 
	C387.386169,133.310562 385.364380,132.698227 382.971008,130.409637 
	C358.669067,107.171539 322.669739,102.294388 293.195923,118.074257 
	C263.931335,133.742111 248.055603,166.321945 253.630478,199.200058 
	C253.862122,200.566223 253.776581,201.986176 253.862717,203.916794 
	C190.606613,197.045700 137.341019,171.984253 95.356712,123.312637 
	C73.461266,164.026382 86.382095,196.456619 116.839394,225.275360 
	C116.481644,225.727112 116.123894,226.178848 115.766136,226.630600 
	C105.353203,223.528320 94.940262,220.426041 84.023392,217.173615 
	C85.066971,257.047852 105.329399,281.897552 143.895706,292.962158 
	C138.392670,294.097198 133.147690,294.803345 127.880852,295.059540 
	C122.653114,295.313812 117.403343,295.115204 111.526405,295.115204 
	C123.424400,327.786652 147.489929,344.308777 182.400146,348.245056 
	C148.753967,373.796967 112.578331,385.459412 71.579903,381.434357 
	C72.801064,382.690887 73.983040,383.527008 75.229111,384.253113 
	C117.660126,408.979187 163.358612,418.653076 212.072220,413.016357 
	C267.894836,406.557129 314.655914,381.972351 351.799164,339.951263 
	C389.598053,297.188446 407.620758,246.780914 406.922485,189.726959 
	C406.881561,186.383072 407.991364,184.310089 410.448822,182.119019 
	C419.145905,174.364838 427.764374,166.499481 436.006165,158.269226 
	C439.214539,155.065338 441.343201,150.780228 444.202393,146.898300 
	C444.154541,146.953812 444.106689,147.009338 443.286041,146.839218 
z"/>
<path fill="#FFFFFF" opacity="1.000000" stroke="none" 
	d="
M443.963684,146.987610 
	C441.343201,150.780228 439.214539,155.065338 436.006165,158.269226 
	C427.764374,166.499481 419.145905,174.364838 410.448822,182.119019 
	C407.991364,184.310089 406.881561,186.383072 406.922485,189.726959 
	C407.620758,246.780914 389.598053,297.188446 351.799164,339.951263 
	C314.655914,381.972351 267.894836,406.557129 212.072220,413.016357 
	C163.358612,418.653076 117.660126,408.979187 75.229111,384.253113 
	C73.983040,383.527008 72.801064,382.690887 71.579903,381.434357 
	C112.578331,385.459412 148.753967,373.796967 182.400146,348.245056 
	C147.489929,344.308777 123.424400,327.786652 111.526405,295.115204 
	C117.403343,295.115204 122.653114,295.313812 127.880852,295.059540 
	C133.147690,294.803345 138.392670,294.097198 143.895706,292.962158 
	C105.329399,281.897552 85.066971,257.047852 84.023392,217.173615 
	C94.940262,220.426041 105.353203,223.528320 115.766136,226.630600 
	C116.123894,226.178848 116.481644,225.727112 116.839394,225.275360 
	C86.382095,196.456619 73.461266,164.026382 95.356712,123.312637 
	C137.341019,171.984253 190.606613,197.045700 253.862717,203.916794 
	C253.776581,201.986176 253.862122,200.566223 253.630478,199.200058 
	C248.055603,166.321945 263.931335,133.742111 293.195923,118.074257 
	C322.669739,102.294388 358.669067,107.171539 382.971008,130.409637 
	C385.364380,132.698227 387.386169,133.310562 390.449707,132.094299 
	C403.432312,126.940041 416.482574,121.956406 429.499664,116.888771 
	C431.014618,116.298988 432.477386,115.575058 434.110199,114.848419 
	C433.946594,125.164993 425.947571,135.778336 402.166931,157.170258 
	C407.693665,156.234116 412.132507,155.660645 416.484619,154.695969 
	C421.030121,153.688400 425.514893,152.381439 429.984222,151.062958 
	C434.445251,149.746902 438.854248,148.254379 443.649414,146.931793 
	C444.012817,147.024384 443.963715,146.987625 443.963684,146.987610 
z"/>
<path fill="#FFFFFF" opacity="1.000000" stroke="none" 
	d="
M444.035828,147.044617 
	C444.106689,147.009338 444.154541,146.953812 444.083069,146.942963 
	C443.963715,146.987625 444.012817,147.024384 444.035828,147.044617 
z"/>
</svg>